<svg xmlns="http://www.w3.org/2000/svg" xmlns:xlink="http://www.w3.org/1999/xlink" contentStyleType="text/css" data-diagram-type="DESCRIPTION" height="477px" preserveAspectRatio="none" style="width:638px;height:477px;background:#FFFFFF;" version="1.1" viewBox="0 0 638 477" width="638px" zoomAndPan="magnify"><defs/><g><!--entity SEC--><g class="entity" data-entity="SEC" data-source-line="10" data-uid="ent0009" id="entity_SEC"><rect fill="#F1F1F1" height="37.6094" rx="2.5" ry="2.5" style="stroke:#181818;stroke-width:0.5;" width="83.8271" x="60.5" y="25.5"/><text fill="#000000" font-family="sans-serif" font-size="14" lengthAdjust="spacing" textLength="63.8271" x="70.5" y="50.0332">Seguridad</text></g><!--entity Usuario--><g class="entity" data-entity="Usuario" data-source-line="1" data-uid="ent0002" id="entity_Usuario"><ellipse cx="203.6206" cy="14" fill="#F1F1F1" rx="8" ry="8" style="stroke:#181818;stroke-width:0.5;"/><path d="M203.6206,22 L203.6206,49 M190.6206,30 L216.6206,30 M203.6206,49 L190.6206,64 M203.6206,49 L216.6206,64" fill="none" style="stroke:#181818;stroke-width:0.5;"/><text fill="#000000" font-family="sans-serif" font-size="14" lengthAdjust="spacing" textLength="48.2412" x="179.5" y="80.0332">Usuario</text></g><!--entity FE--><g class="entity" data-entity="FE" data-source-line="2" data-uid="ent0003" id="entity_FE"><polygon fill="#F1F1F1" points="118,171.5,128,161.5,289.4961,161.5,289.4961,199.1094,279.4961,209.1094,118,209.1094,118,171.5" style="stroke:#181818;stroke-width:0.5;"/><line style="stroke:#181818;stroke-width:0.5;" x1="279.4961" x2="289.4961" y1="171.5" y2="161.5"/><line style="stroke:#181818;stroke-width:0.5;" x1="118" x2="279.4961" y1="171.5" y2="171.5"/><line style="stroke:#181818;stroke-width:0.5;" x1="279.4961" x2="279.4961" y1="171.5" y2="209.1094"/><text fill="#000000" font-family="sans-serif" font-size="14" lengthAdjust="spacing" textLength="131.4961" x="133" y="196.0332">Frontend (Next.js 15)</text></g><!--entity BE--><g class="entity" data-entity="BE" data-source-line="3" data-uid="ent0004" id="entity_BE"><polygon fill="#F1F1F1" points="101.5,297.5,111.5,287.5,305.7061,287.5,305.7061,325.1094,295.7061,335.1094,101.5,335.1094,101.5,297.5" style="stroke:#181818;stroke-width:0.5;"/><line style="stroke:#181818;stroke-width:0.5;" x1="295.7061" x2="305.7061" y1="297.5" y2="287.5"/><line style="stroke:#181818;stroke-width:0.5;" x1="101.5" x2="295.7061" y1="297.5" y2="297.5"/><line style="stroke:#181818;stroke-width:0.5;" x1="295.7061" x2="295.7061" y1="297.5" y2="335.1094"/><text fill="#000000" font-family="sans-serif" font-size="14" lengthAdjust="spacing" textLength="164.2061" x="116.5" y="322.0332">Backend (Spring Boot 3.3)</text></g><!--entity DB--><g class="entity" data-entity="DB" data-source-line="4" data-uid="ent0005" id="entity_DB"><path d="M6,424 C6,414 114.4307,414 114.4307,414 C114.4307,414 222.8613,414 222.8613,424 L222.8613,450.6094 C222.8613,460.6094 114.4307,460.6094 114.4307,460.6094 C114.4307,460.6094 6,460.6094 6,450.6094 L6,424" fill="#F1F1F1" style="stroke:#181818;stroke-width:0.5;"/><path d="M6,424 C6,434 114.4307,434 114.4307,434 C114.4307,434 222.8613,434 222.8613,424" fill="none" style="stroke:#181818;stroke-width:0.5;"/><text fill="#000000" font-family="sans-serif" font-size="14" lengthAdjust="spacing" textLength="196.8613" x="16" y="452.5332">DB (H2 dev / PostgreSQL prod)</text></g><!--entity Health--><g class="entity" data-entity="Health" data-source-line="15" data-uid="ent0012" id="entity_Health"><path d="M268.0202,421.5514 C270.4848,414.2872 275.5118,413.62 280.3527,419.2848 C283.8786,411.535 288.9038,409.905 295.0088,416.6829 C300.2363,410.3144 305.5566,411.2618 308.5526,418.8486 C314.0813,413.2904 319.7486,414.0977 322.3399,421.8835 C332.8551,422.8703 336.0131,427.9682 331.6209,437.7017 C335.9027,446.7458 333.8085,453.5255 323.0248,455.1457 C319.2905,462.7195 312.5986,462.8266 308.061,455.9793 C304.576,461.9624 299.5482,463.2481 295.0423,457.0725 C289.0182,462.8775 284.5049,461.912 280.6106,454.7095 C277.0366,461.4247 270.3506,462.3416 266.6307,454.8531 C257.9511,452.8506 253.7205,446.68 260.6865,438.8619 C254.2499,429.0947 256.663,423.7801 268.0202,421.5514" fill="#F1F1F1" style="stroke:#181818;stroke-width:0.5;"/><text fill="#000000" font-family="sans-serif" font-size="14" lengthAdjust="spacing" textLength="40.4688" x="273.5" y="443.0332">Health</text></g><!--link Usuario to FE--><g class="link" data-entity-1="Usuario" data-entity-2="FE" data-source-line="6" data-uid="lnk6" id="link_Usuario_FE"><path d="M203.5,83.85 C203.5,108.76 203.5,134.4 203.5,155.49" fill="none" id="Usuario-to-FE" style="stroke:#181818;stroke-width:1;"/><polygon fill="#181818" points="203.5,161.49,207.5,152.49,203.5,156.49,199.5,152.49,203.5,161.49" style="stroke:#181818;stroke-width:1;"/><text fill="#000000" font-family="sans-serif" font-size="13" lengthAdjust="spacing" textLength="66.4727" x="204.5" y="127.9951">HTTP 3000</text></g><!--link FE to BE--><g class="link" data-entity-1="FE" data-entity-2="BE" data-source-line="7" data-uid="lnk7" id="link_FE_BE"><path d="M203.5,209.53 C203.5,231.67 203.5,258.94 203.5,281.17" fill="none" id="FE-to-BE" style="stroke:#181818;stroke-width:1;"/><polygon fill="#181818" points="203.5,287.17,207.5,278.17,203.5,282.17,199.5,278.17,203.5,287.17" style="stroke:#181818;stroke-width:1;"/><text fill="#000000" font-family="sans-serif" font-size="13" lengthAdjust="spacing" textLength="179.9053" x="204.5" y="253.9951">API JWT (http://localhost:8080)</text></g><!--link BE to DB--><g class="link" data-entity-1="BE" data-entity-2="DB" data-source-line="8" data-uid="lnk8" id="link_BE_DB"><path d="M186.97,335.53 C170.98,357.81 150.3992,386.4861 134.4392,408.7161" fill="none" id="BE-to-DB" style="stroke:#181818;stroke-width:1;"/><polygon fill="#181818" points="130.94,413.59,139.4382,408.6119,133.856,409.5284,132.9396,403.9463,130.94,413.59" style="stroke:#181818;stroke-width:1;"/><text fill="#000000" font-family="sans-serif" font-size="13" lengthAdjust="spacing" textLength="23.8418" x="165.5" y="379.9951">JPA</text></g><!--link BE to BE--><g class="link" data-entity-1="BE" data-entity-2="BE" data-source-line="11" data-uid="lnk10" id="link_BE_BE"><path d="M305.67,305.93 C326,306.55 340.5,308.41 340.5,311.5 C340.5,314.59 331.9972,316.2671 311.6672,316.8871" fill="none" id="BE-to-BE" style="stroke:#181818;stroke-width:1;"/><polygon fill="#181818" points="305.67,317.07,314.7877,320.7938,310.6677,316.9176,314.5439,312.7975,305.67,317.07" style="stroke:#181818;stroke-width:1;"/><text fill="#000000" font-family="sans-serif" font-size="13" lengthAdjust="spacing" textLength="130.7808" x="346.5" y="316.9951">JwtAuthenticationFilter</text></g><!--link BE to BE--><g class="link" data-entity-1="BE" data-entity-2="BE" data-source-line="12" data-uid="lnk11" id="link_BE_BE"><path d="M305.57,301 C387.32,297.84 482.5,301.34 482.5,311.5 C482.5,321.66 393.3155,325.3918 311.5655,322.2318" fill="none" id="BE-to-BE-1" style="stroke:#181818;stroke-width:1;"/><polygon fill="#181818" points="305.57,322,314.4088,326.3446,310.5663,322.1931,314.7178,318.3506,305.57,322" style="stroke:#181818;stroke-width:1;"/><text fill="#000000" font-family="sans-serif" font-size="13" lengthAdjust="spacing" textLength="136.7349" x="488.5" y="316.9951">@PreAuthorize (RBAC)</text></g><!--link BE to Health--><g class="link" data-entity-1="BE" data-entity-2="Health" data-source-line="16" data-uid="lnk13" id="link_BE_Health"><path d="M220.22,335.53 C236.28,357.67 256.9049,386.0848 273.0449,408.3148" fill="none" id="BE-to-Health" style="stroke:#181818;stroke-width:1;"/><polygon fill="#181818" points="276.57,413.17,274.5191,403.537,273.6324,409.124,268.0455,408.2372,276.57,413.17" style="stroke:#181818;stroke-width:1;"/><text fill="#000000" font-family="sans-serif" font-size="13" lengthAdjust="spacing" textLength="143.7935" x="254.5" y="379.9951">GET /api/health (p&#250;blico)</text></g><!--SRC=[NOx1IiD054NtynMFhf95csWHIXPYfasjHIGs4TVJcI4P7UQ5oOkAue-vzSUSDXN4tNkNmprNI48F3_qWl47cK6cOh3qwqav1TAVVQFRKmzb5F07Hmxeu8Lp8voDHTTwu1ZWYmNms7p5UC2L8x4KVq1M7Q7CEIhz00YNsr7XTtTz2vr6D-8epTbe0q-bbi406cxekOPwcAGll8UM7D2zlOFjOGzGITLcIM9J2jg4qMwIBD6PyP8CpWssPC-Qr9E4Q6uPKkXcyKK8TfLMnX0y6mF-qRryf7wZLZemKPD2jZINj_r5NfTS73Brvrn3jUBwCsITZqkAWOBBHmb9xT8pdxwZn2mNNHGs9w4pIZadKVN_jhP4O_m00]--></g></svg>