<svg xmlns="http://www.w3.org/2000/svg" xmlns:xlink="http://www.w3.org/1999/xlink" contentStyleType="text/css" data-diagram-type="CLASS" height="599px" preserveAspectRatio="none" style="width:868px;height:599px;background:#FFFFFF;" version="1.1" viewBox="0 0 868 599" width="868px" zoomAndPan="magnify"><title>Diagrama de Clases (Dominios principales)</title><defs/><g><g class="title" data-source-line="1"><text fill="#000000" font-family="sans-serif" font-size="14" font-weight="bold" lengthAdjust="spacing" textLength="287.8682" x="283.0708" y="24.5332">Diagrama de Clases (Dominios principales)</text></g><!--class Usuario--><g class="entity" data-entity="Usuario" data-source-line="3" data-uid="ent0002" id="entity_Usuario"><rect fill="#F1F1F1" height="136.0469" rx="2.5" ry="2.5" style="stroke:#181818;stroke-width:0.5;" width="114.7236" x="611.5" y="45.6094"/><ellipse cx="642.0171" cy="61.6094" fill="#ADD1B2" rx="11" ry="11" style="stroke:#181818;stroke-width:1;"/><path d="M644.7827,57.4844 Q644.939,57.2656 645.1265,57.1563 Q645.314,57.0469 645.5327,57.0469 Q645.9077,57.0469 646.1421,57.3125 Q646.3765,57.5625 646.3765,58.1719 L646.3765,59.625 Q646.3765,60.2344 646.1421,60.5 Q645.9077,60.7656 645.5327,60.7656 Q645.189,60.7656 644.9858,60.5625 Q644.7827,60.375 644.6733,59.8594 Q644.6265,59.5 644.439,59.3125 Q644.1108,58.9375 643.5015,58.7188 Q642.8921,58.5 642.2671,58.5 Q641.5015,58.5 640.8608,58.8281 Q640.2358,59.1563 639.7358,59.9063 Q639.2515,60.6563 639.2515,61.6875 L639.2515,62.7813 Q639.2515,64.0156 640.1421,64.8438 Q641.0327,65.6563 642.6265,65.6563 Q643.564,65.6563 644.2202,65.4063 Q644.6108,65.25 645.0327,64.8125 Q645.2983,64.5469 645.439,64.4688 Q645.5952,64.3906 645.7983,64.3906 Q646.1265,64.3906 646.3765,64.6563 Q646.6421,64.9063 646.6421,65.25 Q646.6421,65.5938 646.2983,66 Q645.7983,66.5781 645.0015,66.9063 Q643.9233,67.3594 642.6265,67.3594 Q641.1108,67.3594 639.9077,66.7344 Q638.9233,66.2344 638.2358,65.1719 Q637.5483,64.0938 637.5483,62.8125 L637.5483,61.6563 Q637.5483,60.3281 638.1577,59.1875 Q638.7827,58.0313 639.8765,57.4219 Q640.9702,56.7969 642.2046,56.7969 Q642.939,56.7969 643.5796,56.9688 Q644.2358,57.125 644.7827,57.4844 Z " fill="#000000"/><text fill="#000000" font-family="sans-serif" font-size="14" lengthAdjust="spacing" textLength="48.2412" x="659.4653" y="67.3379">Usuario</text><line style="stroke:#181818;stroke-width:0.5;" x1="612.5" x2="725.2236" y1="77.6094" y2="77.6094"/><ellipse cx="622.5" cy="91.9141" fill="none" rx="3" ry="3" style="stroke:#038048;stroke-width:1;"/><text fill="#000000" font-family="sans-serif" font-size="14" lengthAdjust="spacing" textLength="49.0068" x="631.5" y="96.1426">UUID id</text><ellipse cx="622.5" cy="109.5234" fill="none" rx="3" ry="3" style="stroke:#038048;stroke-width:1;"/><text fill="#000000" font-family="sans-serif" font-size="14" lengthAdjust="spacing" textLength="73.917" x="631.5" y="113.752">String email</text><ellipse cx="622.5" cy="127.1328" fill="none" rx="3" ry="3" style="stroke:#038048;stroke-width:1;"/><text fill="#000000" font-family="sans-serif" font-size="14" lengthAdjust="spacing" textLength="87.9307" x="631.5" y="131.3613">String nombre</text><ellipse cx="622.5" cy="144.7422" fill="none" rx="3" ry="3" style="stroke:#038048;stroke-width:1;"/><text fill="#000000" font-family="sans-serif" font-size="14" lengthAdjust="spacing" textLength="88.7236" x="631.5" y="148.9707">String apellido</text><ellipse cx="622.5" cy="162.3516" fill="none" rx="3" ry="3" style="stroke:#038048;stroke-width:1;"/><text fill="#000000" font-family="sans-serif" font-size="14" lengthAdjust="spacing" textLength="40.4551" x="631.5" y="166.5801">Rol rol</text><line style="stroke:#181818;stroke-width:0.5;" x1="612.5" x2="725.2236" y1="173.6563" y2="173.6563"/></g><!--class Rol--><g class="entity" data-entity="Rol" data-source-line="10" data-uid="ent0003" id="entity_Rol"><rect fill="#F1F1F1" height="100.8281" rx="2.5" ry="2.5" style="stroke:#181818;stroke-width:0.5;" width="77.3652" x="156.5" y="63.1094"/><ellipse cx="182.4613" cy="79.1094" fill="#EB937F" rx="11" ry="11" style="stroke:#181818;stroke-width:1;"/><path d="M181.3207,79.9063 L181.3207,82.4063 L185.6488,82.4063 L185.6488,81.4844 Q185.6488,80.875 185.8832,80.6094 Q186.1332,80.3438 186.5082,80.3438 Q186.8832,80.3438 187.1175,80.6094 Q187.3519,80.875 187.3519,81.4844 L187.3519,84.1094 L179.3519,84.1094 Q178.7269,84.1094 178.4613,83.875 Q178.2113,83.6406 178.2113,83.25 Q178.2113,82.875 178.4769,82.6406 Q178.7425,82.4063 179.3519,82.4063 L179.6175,82.4063 L179.6175,75.75 L179.3519,75.75 Q178.7269,75.75 178.4613,75.5156 Q178.2113,75.2813 178.2113,74.8906 Q178.2113,74.5156 178.4613,74.2813 Q178.7269,74.0469 179.3519,74.0469 L186.9769,74.0469 L186.9769,76.6406 Q186.9769,77.25 186.7425,77.5156 Q186.5238,77.7656 186.1332,77.7656 Q185.7582,77.7656 185.5238,77.5156 Q185.2894,77.25 185.2894,76.6406 L185.2894,75.75 L181.3207,75.75 L181.3207,78.2031 L182.805,78.2031 Q182.805,77.5469 182.93,77.3594 Q183.1957,76.9531 183.6644,76.9531 Q184.0394,76.9531 184.2738,77.2188 Q184.5082,77.4688 184.5082,78.0781 L184.5082,80.0469 Q184.5082,80.5938 184.3832,80.7813 Q184.1175,81.1719 183.6644,81.1719 Q183.1957,81.1719 182.93,80.7656 Q182.805,80.5781 182.805,79.9063 L181.3207,79.9063 Z " fill="#000000"/><text fill="#000000" font-family="sans-serif" font-size="14" lengthAdjust="spacing" textLength="21.0068" x="198.8971" y="84.8379">Rol</text><line style="stroke:#181818;stroke-width:0.5;" x1="157.5" x2="232.8652" y1="95.1094" y2="95.1094"/><text fill="#000000" font-family="sans-serif" font-size="14" lengthAdjust="spacing" textLength="38.1309" x="162.5" y="113.6426">admin</text><text fill="#000000" font-family="sans-serif" font-size="14" lengthAdjust="spacing" textLength="65.3652" x="162.5" y="131.252">veterinario</text><text fill="#000000" font-family="sans-serif" font-size="14" lengthAdjust="spacing" textLength="38.9307" x="162.5" y="148.8613">due&#241;o</text><line style="stroke:#181818;stroke-width:0.5;" x1="157.5" x2="232.8652" y1="155.9375" y2="155.9375"/></g><!--class Mascota--><g class="entity" data-entity="Mascota" data-source-line="16" data-uid="ent0004" id="entity_Mascota"><rect fill="#F1F1F1" height="136.0469" rx="2.5" ry="2.5" style="stroke:#181818;stroke-width:0.5;" width="168.4199" x="459" y="259.6094"/><ellipse cx="512.5049" cy="275.6094" fill="#ADD1B2" rx="11" ry="11" style="stroke:#181818;stroke-width:1;"/><path d="M515.2705,271.4844 Q515.4268,271.2656 515.6143,271.1563 Q515.8018,271.0469 516.0205,271.0469 Q516.3955,271.0469 516.6299,271.3125 Q516.8643,271.5625 516.8643,272.1719 L516.8643,273.625 Q516.8643,274.2344 516.6299,274.5 Q516.3955,274.7656 516.0205,274.7656 Q515.6768,274.7656 515.4736,274.5625 Q515.2705,274.375 515.1611,273.8594 Q515.1143,273.5 514.9268,273.3125 Q514.5986,272.9375 513.9893,272.7188 Q513.3799,272.5 512.7549,272.5 Q511.9893,272.5 511.3486,272.8281 Q510.7236,273.1563 510.2236,273.9063 Q509.7393,274.6563 509.7393,275.6875 L509.7393,276.7813 Q509.7393,278.0156 510.6299,278.8438 Q511.5205,279.6563 513.1143,279.6563 Q514.0518,279.6563 514.708,279.4063 Q515.0986,279.25 515.5205,278.8125 Q515.7861,278.5469 515.9268,278.4688 Q516.083,278.3906 516.2861,278.3906 Q516.6143,278.3906 516.8643,278.6563 Q517.1299,278.9063 517.1299,279.25 Q517.1299,279.5938 516.7861,280 Q516.2861,280.5781 515.4893,280.9063 Q514.4111,281.3594 513.1143,281.3594 Q511.5986,281.3594 510.3955,280.7344 Q509.4111,280.2344 508.7236,279.1719 Q508.0361,278.0938 508.0361,276.8125 L508.0361,275.6563 Q508.0361,274.3281 508.6455,273.1875 Q509.2705,272.0313 510.3643,271.4219 Q511.458,270.7969 512.6924,270.7969 Q513.4268,270.7969 514.0674,270.9688 Q514.7236,271.125 515.2705,271.4844 Z " fill="#000000"/><text fill="#000000" font-family="sans-serif" font-size="14" lengthAdjust="spacing" textLength="52.9102" x="533.0049" y="281.3379">Mascota</text><line style="stroke:#181818;stroke-width:0.5;" x1="460" x2="626.4199" y1="291.6094" y2="291.6094"/><ellipse cx="470" cy="305.9141" fill="none" rx="3" ry="3" style="stroke:#038048;stroke-width:1;"/><text fill="#000000" font-family="sans-serif" font-size="14" lengthAdjust="spacing" textLength="49.0068" x="479" y="310.1426">UUID id</text><ellipse cx="470" cy="323.5234" fill="none" rx="3" ry="3" style="stroke:#038048;stroke-width:1;"/><text fill="#000000" font-family="sans-serif" font-size="14" lengthAdjust="spacing" textLength="87.9307" x="479" y="327.752">String nombre</text><ellipse cx="470" cy="341.1328" fill="none" rx="3" ry="3" style="stroke:#038048;stroke-width:1;"/><text fill="#000000" font-family="sans-serif" font-size="14" lengthAdjust="spacing" textLength="88.7168" x="479" y="345.3613">String especie</text><ellipse cx="470" cy="358.7422" fill="none" rx="3" ry="3" style="stroke:#038048;stroke-width:1;"/><text fill="#000000" font-family="sans-serif" font-size="14" lengthAdjust="spacing" textLength="67.6963" x="479" y="362.9707">String raza</text><ellipse cx="470" cy="376.3516" fill="none" rx="3" ry="3" style="stroke:#038048;stroke-width:1;"/><text fill="#000000" font-family="sans-serif" font-size="14" lengthAdjust="spacing" textLength="142.4199" x="479" y="380.5801">EstadoMascota estado</text><line style="stroke:#181818;stroke-width:0.5;" x1="460" x2="626.4199" y1="387.6563" y2="387.6563"/></g><!--class EstadoMascota--><g class="entity" data-entity="EstadoMascota" data-source-line="23" data-uid="ent0005" id="entity_EstadoMascota"><rect fill="#F1F1F1" height="100.8281" rx="2.5" ry="2.5" style="stroke:#181818;stroke-width:0.5;" width="128.4961" x="269" y="63.1094"/><ellipse cx="284" cy="79.1094" fill="#EB937F" rx="11" ry="11" style="stroke:#181818;stroke-width:1;"/><path d="M282.8594,79.9063 L282.8594,82.4063 L287.1875,82.4063 L287.1875,81.4844 Q287.1875,80.875 287.4219,80.6094 Q287.6719,80.3438 288.0469,80.3438 Q288.4219,80.3438 288.6563,80.6094 Q288.8906,80.875 288.8906,81.4844 L288.8906,84.1094 L280.8906,84.1094 Q280.2656,84.1094 280,83.875 Q279.75,83.6406 279.75,83.25 Q279.75,82.875 280.0156,82.6406 Q280.2813,82.4063 280.8906,82.4063 L281.1563,82.4063 L281.1563,75.75 L280.8906,75.75 Q280.2656,75.75 280,75.5156 Q279.75,75.2813 279.75,74.8906 Q279.75,74.5156 280,74.2813 Q280.2656,74.0469 280.8906,74.0469 L288.5156,74.0469 L288.5156,76.6406 Q288.5156,77.25 288.2813,77.5156 Q288.0625,77.7656 287.6719,77.7656 Q287.2969,77.7656 287.0625,77.5156 Q286.8281,77.25 286.8281,76.6406 L286.8281,75.75 L282.8594,75.75 L282.8594,78.2031 L284.3438,78.2031 Q284.3438,77.5469 284.4688,77.3594 Q284.7344,76.9531 285.2031,76.9531 Q285.5781,76.9531 285.8125,77.2188 Q286.0469,77.4688 286.0469,78.0781 L286.0469,80.0469 Q286.0469,80.5938 285.9219,80.7813 Q285.6563,81.1719 285.2031,81.1719 Q284.7344,81.1719 284.4688,80.7656 Q284.3438,80.5781 284.3438,79.9063 L282.8594,79.9063 Z " fill="#000000"/><text fill="#000000" font-family="sans-serif" font-size="14" lengthAdjust="spacing" textLength="96.4961" x="298" y="84.8379">EstadoMascota</text><line style="stroke:#181818;stroke-width:0.5;" x1="270" x2="396.4961" y1="95.1094" y2="95.1094"/><text fill="#000000" font-family="sans-serif" font-size="14" lengthAdjust="spacing" textLength="36.5723" x="275" y="113.6426">activo</text><text fill="#000000" font-family="sans-serif" font-size="14" lengthAdjust="spacing" textLength="51.3652" x="275" y="131.252">fallecido</text><text fill="#000000" font-family="sans-serif" font-size="14" lengthAdjust="spacing" textLength="78.6133" x="275" y="148.8613">desconocido</text><line style="stroke:#181818;stroke-width:0.5;" x1="270" x2="396.4961" y1="155.9375" y2="155.9375"/></g><!--class Cita--><g class="entity" data-entity="Cita" data-source-line="29" data-uid="ent0006" id="entity_Cita"><rect fill="#F1F1F1" height="118.4375" rx="2.5" ry="2.5" style="stroke:#181818;stroke-width:0.5;" width="192.5098" x="668.5" y="465.6094"/><ellipse cx="748.0566" cy="481.6094" fill="#ADD1B2" rx="11" ry="11" style="stroke:#181818;stroke-width:1;"/><path d="M750.8223,477.4844 Q750.9785,477.2656 751.166,477.1563 Q751.3535,477.0469 751.5723,477.0469 Q751.9473,477.0469 752.1816,477.3125 Q752.416,477.5625 752.416,478.1719 L752.416,479.625 Q752.416,480.2344 752.1816,480.5 Q751.9473,480.7656 751.5723,480.7656 Q751.2285,480.7656 751.0254,480.5625 Q750.8223,480.375 750.7129,479.8594 Q750.666,479.5 750.4785,479.3125 Q750.1504,478.9375 749.541,478.7188 Q748.9316,478.5 748.3066,478.5 Q747.541,478.5 746.9004,478.8281 Q746.2754,479.1563 745.7754,479.9063 Q745.291,480.6563 745.291,481.6875 L745.291,482.7813 Q745.291,484.0156 746.1816,484.8438 Q747.0723,485.6563 748.666,485.6563 Q749.6035,485.6563 750.2598,485.4063 Q750.6504,485.25 751.0723,484.8125 Q751.3379,484.5469 751.4785,484.4688 Q751.6348,484.3906 751.8379,484.3906 Q752.166,484.3906 752.416,484.6563 Q752.6816,484.9063 752.6816,485.25 Q752.6816,485.5938 752.3379,486 Q751.8379,486.5781 751.041,486.9063 Q749.9629,487.3594 748.666,487.3594 Q747.1504,487.3594 745.9473,486.7344 Q744.9629,486.2344 744.2754,485.1719 Q743.5879,484.0938 743.5879,482.8125 L743.5879,481.6563 Q743.5879,480.3281 744.1973,479.1875 Q744.8223,478.0313 745.916,477.4219 Q747.0098,476.7969 748.2441,476.7969 Q748.9785,476.7969 749.6191,476.9688 Q750.2754,477.125 750.8223,477.4844 Z " fill="#000000"/><text fill="#000000" font-family="sans-serif" font-size="14" lengthAdjust="spacing" textLength="24.8965" x="768.5566" y="487.3379">Cita</text><line style="stroke:#181818;stroke-width:0.5;" x1="669.5" x2="860.0098" y1="497.6094" y2="497.6094"/><ellipse cx="679.5" cy="511.9141" fill="none" rx="3" ry="3" style="stroke:#038048;stroke-width:1;"/><text fill="#000000" font-family="sans-serif" font-size="14" lengthAdjust="spacing" textLength="49.0068" x="688.5" y="516.1426">UUID id</text><ellipse cx="679.5" cy="529.5234" fill="none" rx="3" ry="3" style="stroke:#038048;stroke-width:1;"/><text fill="#000000" font-family="sans-serif" font-size="14" lengthAdjust="spacing" textLength="166.5098" x="688.5" y="533.752">OffsetDateTime fechaHora</text><ellipse cx="679.5" cy="547.1328" fill="none" rx="3" ry="3" style="stroke:#038048;stroke-width:1;"/><text fill="#000000" font-family="sans-serif" font-size="14" lengthAdjust="spacing" textLength="81.6963" x="688.5" y="551.3613">String motivo</text><ellipse cx="679.5" cy="564.7422" fill="none" rx="3" ry="3" style="stroke:#038048;stroke-width:1;"/><text fill="#000000" font-family="sans-serif" font-size="14" lengthAdjust="spacing" textLength="114.4063" x="688.5" y="568.9707">EstadoCita estado</text><line style="stroke:#181818;stroke-width:0.5;" x1="669.5" x2="860.0098" y1="576.0469" y2="576.0469"/></g><!--class EstadoCita--><g class="entity" data-entity="EstadoCita" data-source-line="35" data-uid="ent0007" id="entity_EstadoCita"><rect fill="#F1F1F1" height="118.4375" rx="2.5" ry="2.5" style="stroke:#181818;stroke-width:0.5;" width="100.4824" x="145" y="268.6094"/><ellipse cx="160" cy="284.6094" fill="#EB937F" rx="11" ry="11" style="stroke:#181818;stroke-width:1;"/><path d="M158.8594,285.4063 L158.8594,287.9063 L163.1875,287.9063 L163.1875,286.9844 Q163.1875,286.375 163.4219,286.1094 Q163.6719,285.8438 164.0469,285.8438 Q164.4219,285.8438 164.6563,286.1094 Q164.8906,286.375 164.8906,286.9844 L164.8906,289.6094 L156.8906,289.6094 Q156.2656,289.6094 156,289.375 Q155.75,289.1406 155.75,288.75 Q155.75,288.375 156.0156,288.1406 Q156.2813,287.9063 156.8906,287.9063 L157.1563,287.9063 L157.1563,281.25 L156.8906,281.25 Q156.2656,281.25 156,281.0156 Q155.75,280.7813 155.75,280.3906 Q155.75,280.0156 156,279.7813 Q156.2656,279.5469 156.8906,279.5469 L164.5156,279.5469 L164.5156,282.1406 Q164.5156,282.75 164.2813,283.0156 Q164.0625,283.2656 163.6719,283.2656 Q163.2969,283.2656 163.0625,283.0156 Q162.8281,282.75 162.8281,282.1406 L162.8281,281.25 L158.8594,281.25 L158.8594,283.7031 L160.3438,283.7031 Q160.3438,283.0469 160.4688,282.8594 Q160.7344,282.4531 161.2031,282.4531 Q161.5781,282.4531 161.8125,282.7188 Q162.0469,282.9688 162.0469,283.5781 L162.0469,285.5469 Q162.0469,286.0938 161.9219,286.2813 Q161.6563,286.6719 161.2031,286.6719 Q160.7344,286.6719 160.4688,286.2656 Q160.3438,286.0781 160.3438,285.4063 L158.8594,285.4063 Z " fill="#000000"/><text fill="#000000" font-family="sans-serif" font-size="14" lengthAdjust="spacing" textLength="68.4824" x="174" y="290.3379">EstadoCita</text><line style="stroke:#181818;stroke-width:0.5;" x1="146" x2="244.4824" y1="300.6094" y2="300.6094"/><text fill="#000000" font-family="sans-serif" font-size="14" lengthAdjust="spacing" textLength="62.2891" x="151" y="319.1426">agendada</text><text fill="#000000" font-family="sans-serif" font-size="14" lengthAdjust="spacing" textLength="69.2549" x="151" y="336.752">confirmada</text><text fill="#000000" font-family="sans-serif" font-size="14" lengthAdjust="spacing" textLength="63.8271" x="151" y="354.3613">cancelada</text><text fill="#000000" font-family="sans-serif" font-size="14" lengthAdjust="spacing" textLength="72.3789" x="151" y="371.9707">completada</text><line style="stroke:#181818;stroke-width:0.5;" x1="146" x2="244.4824" y1="379.0469" y2="379.0469"/></g><!--class HistorialMedico--><g class="entity" data-entity="HistorialMedico" data-source-line="42" data-uid="ent0008" id="entity_HistorialMedico"><rect fill="#F1F1F1" height="136.0469" rx="2.5" ry="2.5" style="stroke:#181818;stroke-width:0.5;" width="194.0957" x="7" y="456.6094"/><ellipse cx="51.9497" cy="472.6094" fill="#ADD1B2" rx="11" ry="11" style="stroke:#181818;stroke-width:1;"/><path d="M54.7153,468.4844 Q54.8716,468.2656 55.0591,468.1563 Q55.2466,468.0469 55.4653,468.0469 Q55.8403,468.0469 56.0747,468.3125 Q56.3091,468.5625 56.3091,469.1719 L56.3091,470.625 Q56.3091,471.2344 56.0747,471.5 Q55.8403,471.7656 55.4653,471.7656 Q55.1216,471.7656 54.9185,471.5625 Q54.7153,471.375 54.606,470.8594 Q54.5591,470.5 54.3716,470.3125 Q54.0435,469.9375 53.4341,469.7188 Q52.8247,469.5 52.1997,469.5 Q51.4341,469.5 50.7935,469.8281 Q50.1685,470.1563 49.6685,470.9063 Q49.1841,471.6563 49.1841,472.6875 L49.1841,473.7813 Q49.1841,475.0156 50.0747,475.8438 Q50.9653,476.6563 52.5591,476.6563 Q53.4966,476.6563 54.1528,476.4063 Q54.5435,476.25 54.9653,475.8125 Q55.231,475.5469 55.3716,475.4688 Q55.5278,475.3906 55.731,475.3906 Q56.0591,475.3906 56.3091,475.6563 Q56.5747,475.9063 56.5747,476.25 Q56.5747,476.5938 56.231,477 Q55.731,477.5781 54.9341,477.9063 Q53.856,478.3594 52.5591,478.3594 Q51.0435,478.3594 49.8403,477.7344 Q48.856,477.2344 48.1685,476.1719 Q47.481,475.0938 47.481,473.8125 L47.481,472.6563 Q47.481,471.3281 48.0903,470.1875 Q48.7153,469.0313 49.8091,468.4219 Q50.9028,467.7969 52.1372,467.7969 Q52.8716,467.7969 53.5122,467.9688 Q54.1685,468.125 54.7153,468.4844 Z " fill="#000000"/><text fill="#000000" font-family="sans-serif" font-size="14" lengthAdjust="spacing" textLength="95.6963" x="72.4497" y="478.3379">HistorialMedico</text><line style="stroke:#181818;stroke-width:0.5;" x1="8" x2="200.0957" y1="488.6094" y2="488.6094"/><ellipse cx="18" cy="502.9141" fill="none" rx="3" ry="3" style="stroke:#038048;stroke-width:1;"/><text fill="#000000" font-family="sans-serif" font-size="14" lengthAdjust="spacing" textLength="49.0068" x="27" y="507.1426">UUID id</text><ellipse cx="18" cy="520.5234" fill="none" rx="3" ry="3" style="stroke:#038048;stroke-width:1;"/><text fill="#000000" font-family="sans-serif" font-size="14" lengthAdjust="spacing" textLength="129.9375" x="27" y="524.752">Decimal temperatura</text><ellipse cx="18" cy="538.1328" fill="none" rx="3" ry="3" style="stroke:#038048;stroke-width:1;"/><text fill="#000000" font-family="sans-serif" font-size="14" lengthAdjust="spacing" textLength="168.0957" x="27" y="542.3613">Integer frecuenciaCardiaca</text><ellipse cx="18" cy="555.7422" fill="none" rx="3" ry="3" style="stroke:#038048;stroke-width:1;"/><text fill="#000000" font-family="sans-serif" font-size="14" lengthAdjust="spacing" textLength="111.2891" x="27" y="559.9707">String diagnostico</text><ellipse cx="18" cy="573.3516" fill="none" rx="3" ry="3" style="stroke:#038048;stroke-width:1;"/><text fill="#000000" font-family="sans-serif" font-size="14" lengthAdjust="spacing" textLength="110.4961" x="27" y="577.5801">String tratamiento</text><line style="stroke:#181818;stroke-width:0.5;" x1="8" x2="200.0957" y1="584.6563" y2="584.6563"/></g><!--class Certificado--><g class="entity" data-entity="Certificado" data-source-line="50" data-uid="ent0009" id="entity_Certificado"><rect fill="#F1F1F1" height="136.0469" rx="2.5" ry="2.5" style="stroke:#181818;stroke-width:0.5;" width="182.4268" x="236" y="456.6094"/><ellipse cx="289.5049" cy="472.6094" fill="#ADD1B2" rx="11" ry="11" style="stroke:#181818;stroke-width:1;"/><path d="M292.2705,468.4844 Q292.4268,468.2656 292.6143,468.1563 Q292.8018,468.0469 293.0205,468.0469 Q293.3955,468.0469 293.6299,468.3125 Q293.8643,468.5625 293.8643,469.1719 L293.8643,470.625 Q293.8643,471.2344 293.6299,471.5 Q293.3955,471.7656 293.0205,471.7656 Q292.6768,471.7656 292.4736,471.5625 Q292.2705,471.375 292.1611,470.8594 Q292.1143,470.5 291.9268,470.3125 Q291.5986,469.9375 290.9893,469.7188 Q290.3799,469.5 289.7549,469.5 Q288.9893,469.5 288.3486,469.8281 Q287.7236,470.1563 287.2236,470.9063 Q286.7393,471.6563 286.7393,472.6875 L286.7393,473.7813 Q286.7393,475.0156 287.6299,475.8438 Q288.5205,476.6563 290.1143,476.6563 Q291.0518,476.6563 291.708,476.4063 Q292.0986,476.25 292.5205,475.8125 Q292.7861,475.5469 292.9268,475.4688 Q293.083,475.3906 293.2861,475.3906 Q293.6143,475.3906 293.8643,475.6563 Q294.1299,475.9063 294.1299,476.25 Q294.1299,476.5938 293.7861,477 Q293.2861,477.5781 292.4893,477.9063 Q291.4111,478.3594 290.1143,478.3594 Q288.5986,478.3594 287.3955,477.7344 Q286.4111,477.2344 285.7236,476.1719 Q285.0361,475.0938 285.0361,473.8125 L285.0361,472.6563 Q285.0361,471.3281 285.6455,470.1875 Q286.2705,469.0313 287.3643,468.4219 Q288.458,467.7969 289.6924,467.7969 Q290.4268,467.7969 291.0674,467.9688 Q291.7236,468.125 292.2705,468.4844 Z " fill="#000000"/><text fill="#000000" font-family="sans-serif" font-size="14" lengthAdjust="spacing" textLength="66.917" x="310.0049" y="478.3379">Certificado</text><line style="stroke:#181818;stroke-width:0.5;" x1="237" x2="417.4268" y1="488.6094" y2="488.6094"/><ellipse cx="247" cy="502.9141" fill="none" rx="3" ry="3" style="stroke:#038048;stroke-width:1;"/><text fill="#000000" font-family="sans-serif" font-size="14" lengthAdjust="spacing" textLength="49.0068" x="256" y="507.1426">UUID id</text><ellipse cx="247" cy="520.5234" fill="none" rx="3" ry="3" style="stroke:#038048;stroke-width:1;"/><text fill="#000000" font-family="sans-serif" font-size="14" lengthAdjust="spacing" textLength="63.0342" x="256" y="524.752">String tipo</text><ellipse cx="247" cy="538.1328" fill="none" rx="3" ry="3" style="stroke:#038048;stroke-width:1;"/><text fill="#000000" font-family="sans-serif" font-size="14" lengthAdjust="spacing" textLength="87.9307" x="256" y="542.3613">String numero</text><ellipse cx="247" cy="555.7422" fill="none" rx="3" ry="3" style="stroke:#038048;stroke-width:1;"/><text fill="#000000" font-family="sans-serif" font-size="14" lengthAdjust="spacing" textLength="102.7168" x="256" y="559.9707">String codigoQR</text><ellipse cx="247" cy="573.3516" fill="none" rx="3" ry="3" style="stroke:#038048;stroke-width:1;"/><text fill="#000000" font-family="sans-serif" font-size="14" lengthAdjust="spacing" textLength="156.4268" x="256" y="577.5801">EstadoCertificado estado</text><line style="stroke:#181818;stroke-width:0.5;" x1="237" x2="417.4268" y1="584.6563" y2="584.6563"/></g><!--class EstadoCertificado--><g class="entity" data-entity="EstadoCertificado" data-source-line="57" data-uid="ent0010" id="entity_EstadoCertificado"><rect fill="#F1F1F1" height="100.8281" rx="2.5" ry="2.5" style="stroke:#181818;stroke-width:0.5;" width="142.5029" x="280.5" y="277.1094"/><ellipse cx="295.5" cy="293.1094" fill="#EB937F" rx="11" ry="11" style="stroke:#181818;stroke-width:1;"/><path d="M294.3594,293.9063 L294.3594,296.4063 L298.6875,296.4063 L298.6875,295.4844 Q298.6875,294.875 298.9219,294.6094 Q299.1719,294.3438 299.5469,294.3438 Q299.9219,294.3438 300.1563,294.6094 Q300.3906,294.875 300.3906,295.4844 L300.3906,298.1094 L292.3906,298.1094 Q291.7656,298.1094 291.5,297.875 Q291.25,297.6406 291.25,297.25 Q291.25,296.875 291.5156,296.6406 Q291.7813,296.4063 292.3906,296.4063 L292.6563,296.4063 L292.6563,289.75 L292.3906,289.75 Q291.7656,289.75 291.5,289.5156 Q291.25,289.2813 291.25,288.8906 Q291.25,288.5156 291.5,288.2813 Q291.7656,288.0469 292.3906,288.0469 L300.0156,288.0469 L300.0156,290.6406 Q300.0156,291.25 299.7813,291.5156 Q299.5625,291.7656 299.1719,291.7656 Q298.7969,291.7656 298.5625,291.5156 Q298.3281,291.25 298.3281,290.6406 L298.3281,289.75 L294.3594,289.75 L294.3594,292.2031 L295.8438,292.2031 Q295.8438,291.5469 295.9688,291.3594 Q296.2344,290.9531 296.7031,290.9531 Q297.0781,290.9531 297.3125,291.2188 Q297.5469,291.4688 297.5469,292.0781 L297.5469,294.0469 Q297.5469,294.5938 297.4219,294.7813 Q297.1563,295.1719 296.7031,295.1719 Q296.2344,295.1719 295.9688,294.7656 Q295.8438,294.5781 295.8438,293.9063 L294.3594,293.9063 Z " fill="#000000"/><text fill="#000000" font-family="sans-serif" font-size="14" lengthAdjust="spacing" textLength="110.5029" x="309.5" y="298.8379">EstadoCertificado</text><line style="stroke:#181818;stroke-width:0.5;" x1="281.5" x2="422.0029" y1="309.1094" y2="309.1094"/><text fill="#000000" font-family="sans-serif" font-size="14" lengthAdjust="spacing" textLength="45.1445" x="286.5" y="327.6426">vigente</text><text fill="#000000" font-family="sans-serif" font-size="14" lengthAdjust="spacing" textLength="48.2549" x="286.5" y="345.252">vencido</text><text fill="#000000" font-family="sans-serif" font-size="14" lengthAdjust="spacing" textLength="57.5928" x="286.5" y="362.8613">revocado</text><line style="stroke:#181818;stroke-width:0.5;" x1="281.5" x2="422.0029" y1="369.9375" y2="369.9375"/></g><!--class Vacuna--><g class="entity" data-entity="Vacuna" data-source-line="63" data-uid="ent0011" id="entity_Vacuna"><rect fill="#F1F1F1" height="118.4375" rx="2.5" ry="2.5" style="stroke:#181818;stroke-width:0.5;" width="180.0615" x="453" y="465.6094"/><ellipse cx="515.0396" cy="481.6094" fill="#ADD1B2" rx="11" ry="11" style="stroke:#181818;stroke-width:1;"/><path d="M517.8052,477.4844 Q517.9614,477.2656 518.1489,477.1563 Q518.3364,477.0469 518.5552,477.0469 Q518.9302,477.0469 519.1646,477.3125 Q519.3989,477.5625 519.3989,478.1719 L519.3989,479.625 Q519.3989,480.2344 519.1646,480.5 Q518.9302,480.7656 518.5552,480.7656 Q518.2114,480.7656 518.0083,480.5625 Q517.8052,480.375 517.6958,479.8594 Q517.6489,479.5 517.4614,479.3125 Q517.1333,478.9375 516.5239,478.7188 Q515.9146,478.5 515.2896,478.5 Q514.5239,478.5 513.8833,478.8281 Q513.2583,479.1563 512.7583,479.9063 Q512.2739,480.6563 512.2739,481.6875 L512.2739,482.7813 Q512.2739,484.0156 513.1646,484.8438 Q514.0552,485.6563 515.6489,485.6563 Q516.5864,485.6563 517.2427,485.4063 Q517.6333,485.25 518.0552,484.8125 Q518.3208,484.5469 518.4614,484.4688 Q518.6177,484.3906 518.8208,484.3906 Q519.1489,484.3906 519.3989,484.6563 Q519.6646,484.9063 519.6646,485.25 Q519.6646,485.5938 519.3208,486 Q518.8208,486.5781 518.0239,486.9063 Q516.9458,487.3594 515.6489,487.3594 Q514.1333,487.3594 512.9302,486.7344 Q511.9458,486.2344 511.2583,485.1719 Q510.5708,484.0938 510.5708,482.8125 L510.5708,481.6563 Q510.5708,480.3281 511.1802,479.1875 Q511.8052,478.0313 512.8989,477.4219 Q513.9927,476.7969 515.2271,476.7969 Q515.9614,476.7969 516.6021,476.9688 Q517.2583,477.125 517.8052,477.4844 Z " fill="#000000"/><text fill="#000000" font-family="sans-serif" font-size="14" lengthAdjust="spacing" textLength="47.4824" x="535.5396" y="487.3379">Vacuna</text><line style="stroke:#181818;stroke-width:0.5;" x1="454" x2="632.0615" y1="497.6094" y2="497.6094"/><ellipse cx="464" cy="511.9141" fill="none" rx="3" ry="3" style="stroke:#038048;stroke-width:1;"/><text fill="#000000" font-family="sans-serif" font-size="14" lengthAdjust="spacing" textLength="49.0068" x="473" y="516.1426">UUID id</text><ellipse cx="464" cy="529.5234" fill="none" rx="3" ry="3" style="stroke:#038048;stroke-width:1;"/><text fill="#000000" font-family="sans-serif" font-size="14" lengthAdjust="spacing" textLength="87.9307" x="473" y="533.752">String nombre</text><ellipse cx="464" cy="547.1328" fill="none" rx="3" ry="3" style="stroke:#038048;stroke-width:1;"/><text fill="#000000" font-family="sans-serif" font-size="14" lengthAdjust="spacing" textLength="131.5234" x="473" y="551.3613">Date fechaAplicacion</text><ellipse cx="464" cy="564.7422" fill="none" rx="3" ry="3" style="stroke:#038048;stroke-width:1;"/><text fill="#000000" font-family="sans-serif" font-size="14" lengthAdjust="spacing" textLength="154.0615" x="473" y="568.9707">Date fechaProximaDosis</text><line style="stroke:#181818;stroke-width:0.5;" x1="454" x2="632.0615" y1="576.0469" y2="576.0469"/></g><!--link Usuario to Mascota--><g class="link" data-entity-1="Usuario" data-entity-2="Mascota" data-source-line="70" data-uid="lnk12" id="link_Usuario_Mascota"><path codeLine="70" d="M629.13,181.6894 C614.35,206.5594 600.6662,229.582 585.8862,254.442" fill="none" id="Usuario-to-Mascota" style="stroke:#181818;stroke-width:1;"/><polygon fill="#181818" points="582.82,259.5994,590.8575,253.9075,585.3752,255.3016,583.9811,249.8192,582.82,259.5994" style="stroke:#181818;stroke-width:1;"/><text fill="#000000" font-family="sans-serif" font-size="13" lengthAdjust="spacing" textLength="36.1499" x="610" y="226.1045">due&#241;o</text><text fill="#000000" font-family="sans-serif" font-size="13" lengthAdjust="spacing" textLength="7.23" x="617.6836" y="203.046">1</text><text fill="#000000" font-family="sans-serif" font-size="13" lengthAdjust="spacing" textLength="19.5127" x="567.1413" y="248.7976">0..*</text></g><!--link Usuario to Cita--><g class="link" data-entity-1="Usuario" data-entity-2="Cita" data-source-line="71" data-uid="lnk13" id="link_Usuario_Cita"><path codeLine="71" d="M684.74,181.6894 C703.28,260.6694 732.399,384.6981 749.979,459.5981" fill="none" id="Usuario-to-Cita" style="stroke:#181818;stroke-width:1;"/><polygon fill="#181818" points="751.35,465.4394,753.1876,455.7635,750.2075,460.5717,745.3993,457.5915,751.35,465.4394" style="stroke:#181818;stroke-width:1;"/><text fill="#000000" font-family="sans-serif" font-size="13" lengthAdjust="spacing" textLength="100.458" x="735" y="333.1045">veterinario/due&#241;o</text><text fill="#000000" font-family="sans-serif" font-size="13" lengthAdjust="spacing" textLength="7.23" x="679.0284" y="203.046">1</text><text fill="#000000" font-family="sans-serif" font-size="13" lengthAdjust="spacing" textLength="19.5127" x="729.5897" y="454.7429">0..*</text></g><!--link Mascota to Cita--><g class="link" data-entity-1="Mascota" data-entity-2="Cita" data-source-line="72" data-uid="lnk14" id="link_Mascota_Cita"><path codeLine="72" d="M619.4,395.7194 C645.24,418.4094 669.3419,439.5899 694.3219,461.5299" fill="none" id="Mascota-to-Cita" style="stroke:#181818;stroke-width:1;"/><polygon fill="#181818" points="698.83,465.4894,694.7075,456.5448,695.0733,462.1898,689.4283,462.5556,698.83,465.4894" style="stroke:#181818;stroke-width:1;"/><text fill="#000000" font-family="sans-serif" font-size="13" lengthAdjust="spacing" textLength="7.23" x="619.908" y="417.079">1</text><text fill="#000000" font-family="sans-serif" font-size="13" lengthAdjust="spacing" textLength="19.5127" x="670.6688" y="454.799">0..*</text></g><!--link Mascota to HistorialMedico--><g class="link" data-entity-1="Mascota" data-entity-2="HistorialMedico" data-source-line="73" data-uid="lnk15" id="link_Mascota_HistorialMedico"><path codeLine="73" d="M459,386.6394 C453.02,389.8794 446.99,392.9094 441,395.6094 C347.35,437.8894 312.67,416.6694 218,456.6094 C212.39,458.9694 212.1267,458.9473 206.4667,461.6973" fill="none" id="Mascota-to-HistorialMedico" style="stroke:#181818;stroke-width:1;"/><polygon fill="#181818" points="201.07,464.3194,210.9131,463.9841,205.5673,462.1343,207.417,456.7884,201.07,464.3194" style="stroke:#181818;stroke-width:1;"/><text fill="#000000" font-family="sans-serif" font-size="13" lengthAdjust="spacing" textLength="7.23" x="443.6511" y="389.0128">1</text><text fill="#000000" font-family="sans-serif" font-size="13" lengthAdjust="spacing" textLength="19.5127" x="208.3998" y="456.0246">0..*</text></g><!--link Mascota to Certificado--><g class="link" data-entity-1="Mascota" data-entity-2="Certificado" data-source-line="74" data-uid="lnk16" id="link_Mascota_Certificado"><path codeLine="74" d="M468.67,395.7194 C446.94,415.3294 427.6533,432.7385 405.9233,452.3585" fill="none" id="Mascota-to-Certificado" style="stroke:#181818;stroke-width:1;"/><polygon fill="#181818" points="401.47,456.3794,410.8306,453.3169,405.1811,453.0286,405.4694,447.3791,401.47,456.3794" style="stroke:#181818;stroke-width:1;"/><text fill="#000000" font-family="sans-serif" font-size="13" lengthAdjust="spacing" textLength="7.23" x="453.634" y="417.079">1</text><text fill="#000000" font-family="sans-serif" font-size="13" lengthAdjust="spacing" textLength="19.5127" x="389.5808" y="445.5535">0..*</text></g><!--link Mascota to Vacuna--><g class="link" data-entity-1="Mascota" data-entity-2="Vacuna" data-source-line="75" data-uid="lnk17" id="link_Mascota_Vacuna"><path codeLine="75" d="M543,395.7194 C543,418.4094 543,437.5494 543,459.4894" fill="none" id="Mascota-to-Vacuna" style="stroke:#181818;stroke-width:1;"/><polygon fill="#181818" points="543,465.4894,547,456.4894,543,460.4894,539,456.4894,543,465.4894" style="stroke:#181818;stroke-width:1;"/><text fill="#000000" font-family="sans-serif" font-size="13" lengthAdjust="spacing" textLength="7.23" x="535.6293" y="417.079">1</text><text fill="#000000" font-family="sans-serif" font-size="13" lengthAdjust="spacing" textLength="19.5127" x="522.8697" y="454.799">0..*</text></g><!--SRC=[ZLF1RjGm4BtdAwmzKL1BkVQ0X3QLsaC559RxO4_IaMnFP4zM2CH7yGty6EDiihZjHkefUUFncpTlnaBYqRG4VO80ng7PUiYOpQkM0qNYR8P4qT807lDPqrWzpcQNHqZ4vbTZp9lTxhOrvChl5z7atc00yXME7Budh08meFVak8JksPl4lldTO1o3AR3GWjFw-jsZeDufvHIv4V_-OSsTXTn1jYom9kHPOSm3MgeZ2Nv2WTTPmF72XnDQD3q-czHPeNqHr87toZYrub0J8a_eg71B9-HzxBgCqeBWLmfeEhGFSCC9Abs1vmgpieddbAnZ0UWnEd25H6LqbC8C85hqoq4OF4e1HuKtb8KJWRz3H_RvK5ljBu0tWc70138UTDv6mHwJwHBQ4NL5O0l94TYw2yLzv2pAMqL5MI0GHgcDmYJKaTMMriOfDDGqwW6cEc3PKS-VxolNAjAJvZqfkYSrKN3QkpYFDU6UBTGp_GPsZ2zOkZBWmt0_35wBMEBuEFufyGyrj-LCkV0l3slpRcFEpz-RpUN5nUlDSSslbWUmaZVjmbNzPjxE5nQ64nVMpfxinIh5VmlNKWv-_GC0]--></g></svg>