<svg xmlns="http://www.w3.org/2000/svg" xmlns:xlink="http://www.w3.org/1999/xlink" contentStyleType="text/css" data-diagram-type="DESCRIPTION" height="514px" preserveAspectRatio="none" style="width:776px;height:514px;background:#FFFFFF;" version="1.1" viewBox="0 0 776 514" width="776px" zoomAndPan="magnify"><title>Despliegue SGV</title><defs/><g><g class="title" data-source-line="1"><text fill="#000000" font-family="sans-serif" font-size="14" font-weight="bold" lengthAdjust="spacing" textLength="108.1445" x="327.3445" y="24.5332">Despliegue SGV</text></g><!--cluster Observabilidad--><g class="cluster" data-entity="Observabilidad" data-source-line="12" data-uid="ent0009" id="cluster_Observabilidad"><rect fill="none" height="100" rx="2.5" ry="2.5" style="stroke:#181818;stroke-width:1;" width="117" x="583.5" y="408.6094"/><text fill="#000000" font-family="sans-serif" font-size="14" font-weight="bold" lengthAdjust="spacing" textLength="101.1445" x="591.4277" y="425.1426">Observabilidad</text></g><!--entity Logs--><g class="entity" data-entity="Logs" data-source-line="13" data-uid="ent0010" id="entity_Logs"><rect fill="#F1F1F1" height="47.6094" rx="2.5" ry="2.5" style="stroke:#181818;stroke-width:0.5;" width="70.3584" x="600.5" y="444.6094"/><rect fill="#F1F1F1" height="10" style="stroke:#181818;stroke-width:0.5;" width="15" x="650.8584" y="449.6094"/><rect fill="#F1F1F1" height="2" style="stroke:#181818;stroke-width:0.5;" width="4" x="648.8584" y="451.6094"/><rect fill="#F1F1F1" height="2" style="stroke:#181818;stroke-width:0.5;" width="4" x="648.8584" y="455.6094"/><text fill="#000000" font-family="sans-serif" font-size="14" lengthAdjust="spacing" textLength="30.3584" x="615.5" y="479.1426">Logs</text></g><!--entity Browser--><g class="entity" data-entity="Browser" data-source-line="3" data-uid="ent0002" id="entity_Browser"><polygon fill="#F1F1F1" points="487,54.6094,497,44.6094,652.2822,44.6094,652.2822,82.2188,642.2822,92.2188,487,92.2188,487,54.6094" style="stroke:#181818;stroke-width:0.5;"/><line style="stroke:#181818;stroke-width:0.5;" x1="642.2822" x2="652.2822" y1="54.6094" y2="44.6094"/><line style="stroke:#181818;stroke-width:0.5;" x1="487" x2="642.2822" y1="54.6094" y2="54.6094"/><line style="stroke:#181818;stroke-width:0.5;" x1="642.2822" x2="642.2822" y1="54.6094" y2="92.2188"/><text fill="#000000" font-family="sans-serif" font-size="14" lengthAdjust="spacing" textLength="125.2822" x="502" y="79.1426">Cliente (Navegador)</text></g><!--entity FrontHost--><g class="entity" data-entity="FrontHost" data-source-line="4" data-uid="ent0003" id="entity_FrontHost"><polygon fill="#F1F1F1" points="433,180.6094,443,170.6094,705.6816,170.6094,705.6816,208.2188,695.6816,218.2188,433,218.2188,433,180.6094" style="stroke:#181818;stroke-width:0.5;"/><line style="stroke:#181818;stroke-width:0.5;" x1="695.6816" x2="705.6816" y1="180.6094" y2="170.6094"/><line style="stroke:#181818;stroke-width:0.5;" x1="433" x2="695.6816" y1="180.6094" y2="180.6094"/><line style="stroke:#181818;stroke-width:0.5;" x1="695.6816" x2="695.6816" y1="180.6094" y2="218.2188"/><text fill="#000000" font-family="sans-serif" font-size="14" lengthAdjust="spacing" textLength="232.6816" x="448" y="205.1426">Frontend Hosting (Vercel/Local 3000)</text></g><!--entity BackHost--><g class="entity" data-entity="BackHost" data-source-line="5" data-uid="ent0004" id="entity_BackHost"><polygon fill="#F1F1F1" points="317,306.6094,327,296.6094,578.0127,296.6094,578.0127,334.2188,568.0127,344.2188,317,344.2188,317,306.6094" style="stroke:#181818;stroke-width:0.5;"/><line style="stroke:#181818;stroke-width:0.5;" x1="568.0127" x2="578.0127" y1="306.6094" y2="296.6094"/><line style="stroke:#181818;stroke-width:0.5;" x1="317" x2="568.0127" y1="306.6094" y2="306.6094"/><line style="stroke:#181818;stroke-width:0.5;" x1="568.0127" x2="568.0127" y1="306.6094" y2="344.2188"/><text fill="#000000" font-family="sans-serif" font-size="14" lengthAdjust="spacing" textLength="221.0127" x="332" y="331.1426">Backend Server (Spring Boot 8080)</text></g><!--entity DB--><g class="entity" data-entity="DB" data-source-line="6" data-uid="ent0005" id="entity_DB"><path d="M6,455.1094 C6,445.1094 150.6235,445.1094 150.6235,445.1094 C150.6235,445.1094 295.2471,445.1094 295.2471,455.1094 L295.2471,481.7188 C295.2471,491.7188 150.6235,491.7188 150.6235,491.7188 C150.6235,491.7188 6,491.7188 6,481.7188 L6,455.1094" fill="#F1F1F1" style="stroke:#181818;stroke-width:0.5;"/><path d="M6,455.1094 C6,465.1094 150.6235,465.1094 150.6235,465.1094 C150.6235,465.1094 295.2471,465.1094 295.2471,455.1094" fill="none" style="stroke:#181818;stroke-width:0.5;"/><text fill="#000000" font-family="sans-serif" font-size="14" lengthAdjust="spacing" textLength="269.2471" x="16" y="483.6426">Base de Datos (PostgreSQL prod / H2 dev)</text></g><g class="entity" data-entity="GMN12" data-source-line="18" data-uid="ent0013" id="entity_GMN12"><path d="M613,307.6094 L613,333.9609 L769.8335,333.9609 L769.8335,317.6094 L759.8335,307.6094 L613,307.6094" fill="#FEFFDD" style="stroke:#181818;stroke-width:0.5;"/><path d="M759.8335,307.6094 L759.8335,317.6094 L769.8335,317.6094 L759.8335,307.6094" fill="#FEFFDD" style="stroke:#181818;stroke-width:1;"/><text fill="#000000" font-family="sans-serif" font-size="13" lengthAdjust="spacing" textLength="135.8335" x="619" y="326.1045">Next.js 15 (App Router)</text></g><g class="entity" data-entity="GMN15" data-source-line="22" data-uid="ent0016" id="entity_GMN15"><path d="M330,455.6094 L330,481.9609 A0,0 0 0 0 330,481.9609 L565.2461,481.9609 A0,0 0 0 0 565.2461,481.9609 L565.2461,465.6094 L555.2461,455.6094 L451.5,455.6094 L447.5,344.7394 L443.5,455.6094 L330,455.6094 A0,0 0 0 0 330,455.6094" fill="#FEFFDD" style="stroke:#181818;stroke-width:0.5;"/><path d="M555.2461,455.6094 L555.2461,465.6094 L565.2461,465.6094 L555.2461,455.6094" fill="#FEFFDD" style="stroke:#181818;stroke-width:0.5;"/><text fill="#000000" font-family="sans-serif" font-size="13" lengthAdjust="spacing" textLength="214.2461" x="336" y="474.1045">Spring Boot 3.3 + SecurityFilterChain</text></g><!--link Browser to FrontHost--><g class="link" data-entity-1="Browser" data-entity-2="FrontHost" data-source-line="8" data-uid="lnk6" id="link_Browser_FrontHost"><path d="M569.5,92.6394 C569.5,114.7794 569.5,142.0494 569.5,164.2794" fill="none" id="Browser-to-FrontHost" style="stroke:#181818;stroke-width:1;"/><polygon fill="#181818" points="569.5,170.2794,573.5,161.2794,569.5,165.2794,565.5,161.2794,569.5,170.2794" style="stroke:#181818;stroke-width:1;"/><text fill="#000000" font-family="sans-serif" font-size="13" lengthAdjust="spacing" textLength="42.6118" x="570.5" y="137.1045">HTTPS</text></g><!--link FrontHost to BackHost--><g class="link" data-entity-1="FrontHost" data-entity-2="BackHost" data-source-line="9" data-uid="lnk7" id="link_FrontHost_BackHost"><path d="M546.84,218.6394 C525.06,240.7794 496.5388,269.7732 474.6588,292.0032" fill="none" id="FrontHost-to-BackHost" style="stroke:#181818;stroke-width:1;"/><polygon fill="#181818" points="470.45,296.2794,479.614,292.671,473.9574,292.7159,473.9125,287.0592,470.45,296.2794" style="stroke:#181818;stroke-width:1;"/><text fill="#000000" font-family="sans-serif" font-size="13" lengthAdjust="spacing" textLength="106.1582" x="517.5" y="263.1045">HTTPS (API JWT)</text></g><!--link BackHost to DB--><g class="link" data-entity-1="BackHost" data-entity-2="DB" data-source-line="10" data-uid="lnk8" id="link_BackHost_DB"><path d="M400.44,344.7394 C344.5,372.2394 257.1549,415.1831 201.7449,442.4131" fill="none" id="BackHost-to-DB" style="stroke:#181818;stroke-width:1;"/><polygon fill="#181818" points="196.36,445.0594,206.2015,444.6799,200.8474,442.8541,202.6732,437.5,196.36,445.0594" style="stroke:#181818;stroke-width:1;"/><text fill="#000000" font-family="sans-serif" font-size="13" lengthAdjust="spacing" textLength="33.9473" x="335.5" y="389.1045">JDBC</text></g><!--link BackHost to Logs--><g class="link" data-entity-1="BackHost" data-entity-2="Logs" data-source-line="15" data-uid="lnk11" id="link_BackHost_Logs"><path d="M496.6,344.6694 C523.57,358.6794 556.67,378.1594 582.5,400.6094 C597.16,413.3594 607.2449,425.694 616.9649,439.494" fill="none" id="BackHost-to-Logs" style="stroke:#181818;stroke-width:1;"/><polygon fill="#181818" points="620.42,444.3994,618.5076,434.738,617.5408,440.3116,611.9672,439.3447,620.42,444.3994" style="stroke:#181818;stroke-width:1;"/></g><!--link FrontHost to GMN12--><g class="link" data-entity-1="FrontHost" data-entity-2="GMN12" data-source-line="18" data-uid="lnk14" id="link_FrontHost_GMN12"><path d="M599.31,218.8494 C610.13,227.7594 622.22,238.2694 632.5,248.6094 C651.71,267.9294 671.42,292.8994 682.5,307.4994" fill="none" id="FrontHost-GMN12" style="stroke:#181818;stroke-width:1;stroke-dasharray:7,7;"/></g><!--SRC=[PP1DJy9048Rl-oicFPKOe4fCY0SJIuD82A8bU30UjjsnhjPEixjKZV6_EmlbmtZPmxplCpjvd7ObGeAsBZKMQuJqUYL4HGeX6F6eSWZXN3POI4Mc4u2q41lwi6ZQrjWGboe54x9ELmM4ApGvblqPvRA4GHH5MsnJzAKMZ6N-vhaKJOC6mhGs7e-970oZOKlvrWPIqibCsWt8Bsz8f2CBuOBJmc1wDuFQa88-JCuuRhPy4WlH7WpTxkNX2hY0oNAvICLXulFTVxiOmgl53KmVbXsnZtmlYRanJUAH40Pp9wk2FGQt6V_Jo4oNMaaLmBS0U9nHOP_4pr- -dR8BDfoHS_GEz7maQOwVhlTguVISJwXhkAUrGzCHNfc7_g5xKySY1xq1dB3YV6sq-nhhadUCNgIkzdj-0G00]--></g></svg>