<svg xmlns="http://www.w3.org/2000/svg" xmlns:xlink="http://www.w3.org/1999/xlink" contentStyleType="text/css" data-diagram-type="SEQUENCE" height="811px" preserveAspectRatio="none" style="width:1141px;height:811px;background:#FFFFFF;" version="1.1" viewBox="0 0 1141 811" width="1141px" zoomAndPan="magnify"><title>Secuencia: Crear y confirmar cita</title><defs/><g><text fill="#000000" font-family="sans-serif" font-size="14" font-weight="bold" lengthAdjust="spacing" textLength="222.5439" x="455.7087" y="29.5332">Secuencia: Crear y confirmar cita</text><g><title>Due.o</title><rect fill="#000000" fill-opacity="0.00000" height="608.3281" width="8" x="24.6274" y="121.2188"/><line style="stroke:#181818;stroke-width:0.5;stroke-dasharray:5,5;" x1="28" x2="28" y1="121.2188" y2="729.5469"/></g><g><title>Admin</title><rect fill="#000000" fill-opacity="0.00000" height="608.3281" width="8" x="81.0962" y="121.2188"/><line style="stroke:#181818;stroke-width:0.5;stroke-dasharray:5,5;" x1="84.2549" x2="84.2549" y1="121.2188" y2="729.5469"/></g><g><title>Veterinario</title><rect fill="#000000" fill-opacity="0.00000" height="608.3281" width="8" x="150.7891" y="121.2188"/><line style="stroke:#181818;stroke-width:0.5;stroke-dasharray:5,5;" x1="153.9375" x2="153.9375" y1="121.2188" y2="729.5469"/></g><g><title>FE</title><rect fill="#000000" fill-opacity="0.00000" height="608.3281" width="8" x="213.5854" y="121.2188"/><line style="stroke:#181818;stroke-width:0.5;stroke-dasharray:5,5;" x1="216.6406" x2="216.6406" y1="121.2188" y2="729.5469"/></g><g><title>BE</title><rect fill="#000000" fill-opacity="0.00000" height="608.3281" width="8" x="255.8682" y="121.2188"/><line style="stroke:#181818;stroke-width:0.5;stroke-dasharray:5,5;" x1="259.5303" x2="259.5303" y1="121.2188" y2="729.5469"/></g><g><title>Citas</title><rect fill="#000000" fill-opacity="0.00000" height="608.3281" width="8" x="305.1543" y="121.2188"/><line style="stroke:#181818;stroke-width:0.5;stroke-dasharray:5,5;" x1="308.2061" x2="308.2061" y1="121.2188" y2="729.5469"/></g><g><title>Repo</title><rect fill="#000000" fill-opacity="0.00000" height="608.3281" width="8" x="361.8369" y="121.2188"/><line style="stroke:#181818;stroke-width:0.5;stroke-dasharray:5,5;" x1="365.1025" x2="365.1025" y1="121.2188" y2="729.5469"/></g><g><title>FE</title><rect fill="#000000" fill-opacity="0.00000" height="608.3281" width="8" x="411.5161" y="121.2188"/><line style="stroke:#181818;stroke-width:0.5;stroke-dasharray:5,5;" x1="414.5713" x2="414.5713" y1="121.2188" y2="729.5469"/></g><g><title>BE</title><rect fill="#000000" fill-opacity="0.00000" height="608.3281" width="8" x="846.6602" y="121.2188"/><line style="stroke:#181818;stroke-width:0.5;stroke-dasharray:5,5;" x1="850.3223" x2="850.3223" y1="121.2188" y2="729.5469"/></g><g><title>Citas</title><rect fill="#000000" fill-opacity="0.00000" height="608.3281" width="8" x="1045.5444" y="121.2188"/><line style="stroke:#181818;stroke-width:0.5;stroke-dasharray:5,5;" x1="1048.5962" x2="1048.5962" y1="121.2188" y2="729.5469"/></g><g><title>Repo</title><rect fill="#000000" fill-opacity="0.00000" height="608.3281" width="8" x="1102.2271" y="121.2188"/><line style="stroke:#181818;stroke-width:0.5;stroke-dasharray:5,5;" x1="1105.4927" x2="1105.4927" y1="121.2188" y2="729.5469"/></g><g class="participant participant-head" data-participant="Due.o"><text fill="#000000" font-family="sans-serif" font-size="14" lengthAdjust="spacing" textLength="41.2549" x="5" y="118.1426">Due&#241;o</text><ellipse cx="28.6274" cy="52.1094" fill="#E2E2F0" rx="8" ry="8" style="stroke:#181818;stroke-width:0.5;"/><path d="M28.6274,60.1094 L28.6274,87.1094 M15.6274,68.1094 L41.6274,68.1094 M28.6274,87.1094 L15.6274,102.1094 M28.6274,87.1094 L41.6274,102.1094" fill="none" style="stroke:#181818;stroke-width:0.5;"/></g><g class="participant participant-tail" data-participant="Due.o"><text fill="#000000" font-family="sans-serif" font-size="14" lengthAdjust="spacing" textLength="41.2549" x="5" y="743.0801">Due&#241;o</text><ellipse cx="28.6274" cy="754.6563" fill="#E2E2F0" rx="8" ry="8" style="stroke:#181818;stroke-width:0.5;"/><path d="M28.6274,762.6563 L28.6274,789.6563 M15.6274,770.6563 L41.6274,770.6563 M28.6274,789.6563 L15.6274,804.6563 M28.6274,789.6563 L41.6274,804.6563" fill="none" style="stroke:#181818;stroke-width:0.5;"/></g><g class="participant participant-head" data-participant="Admin"><text fill="#000000" font-family="sans-serif" font-size="14" lengthAdjust="spacing" textLength="39.6826" x="62.2549" y="118.1426">Admin</text><ellipse cx="85.0962" cy="52.1094" fill="#E2E2F0" rx="8" ry="8" style="stroke:#181818;stroke-width:0.5;"/><path d="M85.0962,60.1094 L85.0962,87.1094 M72.0962,68.1094 L98.0962,68.1094 M85.0962,87.1094 L72.0962,102.1094 M85.0962,87.1094 L98.0962,102.1094" fill="none" style="stroke:#181818;stroke-width:0.5;"/></g><g class="participant participant-tail" data-participant="Admin"><text fill="#000000" font-family="sans-serif" font-size="14" lengthAdjust="spacing" textLength="39.6826" x="62.2549" y="743.0801">Admin</text><ellipse cx="85.0962" cy="754.6563" fill="#E2E2F0" rx="8" ry="8" style="stroke:#181818;stroke-width:0.5;"/><path d="M85.0962,762.6563 L85.0962,789.6563 M72.0962,770.6563 L98.0962,770.6563 M85.0962,789.6563 L72.0962,804.6563 M85.0962,789.6563 L98.0962,804.6563" fill="none" style="stroke:#181818;stroke-width:0.5;"/></g><g class="participant participant-head" data-participant="Veterinario"><text fill="#000000" font-family="sans-serif" font-size="14" lengthAdjust="spacing" textLength="67.7031" x="117.9375" y="118.1426">Veterinario</text><ellipse cx="154.7891" cy="52.1094" fill="#E2E2F0" rx="8" ry="8" style="stroke:#181818;stroke-width:0.5;"/><path d="M154.7891,60.1094 L154.7891,87.1094 M141.7891,68.1094 L167.7891,68.1094 M154.7891,87.1094 L141.7891,102.1094 M154.7891,87.1094 L167.7891,102.1094" fill="none" style="stroke:#181818;stroke-width:0.5;"/></g><g class="participant participant-tail" data-participant="Veterinario"><text fill="#000000" font-family="sans-serif" font-size="14" lengthAdjust="spacing" textLength="67.7031" x="117.9375" y="743.0801">Veterinario</text><ellipse cx="154.7891" cy="754.6563" fill="#E2E2F0" rx="8" ry="8" style="stroke:#181818;stroke-width:0.5;"/><path d="M154.7891,762.6563 L154.7891,789.6563 M141.7891,770.6563 L167.7891,770.6563 M154.7891,789.6563 L141.7891,804.6563 M154.7891,789.6563 L167.7891,804.6563" fill="none" style="stroke:#181818;stroke-width:0.5;"/></g><g class="participant participant-head" data-participant="Frontend"><rect fill="#E2E2F0" height="31.6094" rx="2.5" ry="2.5" style="stroke:#181818;stroke-width:0.5;" width="31.8896" x="201.6406" y="88.6094"/><text fill="#000000" font-family="sans-serif" font-size="14" lengthAdjust="spacing" textLength="17.8896" x="208.6406" y="110.1426">FE</text></g><g class="participant participant-tail" data-participant="Frontend"><rect fill="#E2E2F0" height="31.6094" rx="2.5" ry="2.5" style="stroke:#181818;stroke-width:0.5;" width="31.8896" x="201.6406" y="728.5469"/><text fill="#000000" font-family="sans-serif" font-size="14" lengthAdjust="spacing" textLength="17.8896" x="208.6406" y="750.0801">FE</text></g><g class="participant participant-head" data-participant="Backend"><rect fill="#E2E2F0" height="31.6094" rx="2.5" ry="2.5" style="stroke:#181818;stroke-width:0.5;" width="32.6758" x="243.5303" y="88.6094"/><text fill="#000000" font-family="sans-serif" font-size="14" lengthAdjust="spacing" textLength="18.6758" x="250.5303" y="110.1426">BE</text></g><g class="participant participant-tail" data-participant="Backend"><rect fill="#E2E2F0" height="31.6094" rx="2.5" ry="2.5" style="stroke:#181818;stroke-width:0.5;" width="32.6758" x="243.5303" y="728.5469"/><text fill="#000000" font-family="sans-serif" font-size="14" lengthAdjust="spacing" textLength="18.6758" x="250.5303" y="750.0801">BE</text></g><g class="participant participant-head" data-participant="CitaService"><rect fill="#E2E2F0" height="31.6094" rx="2.5" ry="2.5" style="stroke:#181818;stroke-width:0.5;" width="45.8965" x="286.2061" y="88.6094"/><text fill="#000000" font-family="sans-serif" font-size="14" lengthAdjust="spacing" textLength="31.8965" x="293.2061" y="110.1426">Citas</text></g><g class="participant participant-tail" data-participant="CitaService"><rect fill="#E2E2F0" height="31.6094" rx="2.5" ry="2.5" style="stroke:#181818;stroke-width:0.5;" width="45.8965" x="286.2061" y="728.5469"/><text fill="#000000" font-family="sans-serif" font-size="14" lengthAdjust="spacing" textLength="31.8965" x="293.2061" y="750.0801">Citas</text></g><g class="participant participant-head" data-participant="MascotaRepository"><rect fill="#E2E2F0" height="31.6094" rx="2.5" ry="2.5" style="stroke:#181818;stroke-width:0.5;" width="47.4688" x="342.1025" y="88.6094"/><text fill="#000000" font-family="sans-serif" font-size="14" lengthAdjust="spacing" textLength="33.4688" x="349.1025" y="110.1426">Repo</text></g><g class="participant participant-tail" data-participant="MascotaRepository"><rect fill="#E2E2F0" height="31.6094" rx="2.5" ry="2.5" style="stroke:#181818;stroke-width:0.5;" width="47.4688" x="342.1025" y="728.5469"/><text fill="#000000" font-family="sans-serif" font-size="14" lengthAdjust="spacing" textLength="33.4688" x="349.1025" y="750.0801">Repo</text></g><g class="participant participant-head" data-participant="FE"><rect fill="#E2E2F0" height="31.6094" rx="2.5" ry="2.5" style="stroke:#181818;stroke-width:0.5;" width="31.8896" x="399.5713" y="88.6094"/><text fill="#000000" font-family="sans-serif" font-size="14" lengthAdjust="spacing" textLength="17.8896" x="406.5713" y="110.1426">FE</text></g><g class="participant participant-tail" data-participant="FE"><rect fill="#E2E2F0" height="31.6094" rx="2.5" ry="2.5" style="stroke:#181818;stroke-width:0.5;" width="31.8896" x="399.5713" y="728.5469"/><text fill="#000000" font-family="sans-serif" font-size="14" lengthAdjust="spacing" textLength="17.8896" x="406.5713" y="750.0801">FE</text></g><g class="participant participant-head" data-participant="BE"><rect fill="#E2E2F0" height="31.6094" rx="2.5" ry="2.5" style="stroke:#181818;stroke-width:0.5;" width="32.6758" x="834.3223" y="88.6094"/><text fill="#000000" font-family="sans-serif" font-size="14" lengthAdjust="spacing" textLength="18.6758" x="841.3223" y="110.1426">BE</text></g><g class="participant participant-tail" data-participant="BE"><rect fill="#E2E2F0" height="31.6094" rx="2.5" ry="2.5" style="stroke:#181818;stroke-width:0.5;" width="32.6758" x="834.3223" y="728.5469"/><text fill="#000000" font-family="sans-serif" font-size="14" lengthAdjust="spacing" textLength="18.6758" x="841.3223" y="750.0801">BE</text></g><g class="participant participant-head" data-participant="Citas"><rect fill="#E2E2F0" height="31.6094" rx="2.5" ry="2.5" style="stroke:#181818;stroke-width:0.5;" width="45.8965" x="1026.5962" y="88.6094"/><text fill="#000000" font-family="sans-serif" font-size="14" lengthAdjust="spacing" textLength="31.8965" x="1033.5962" y="110.1426">Citas</text></g><g class="participant participant-tail" data-participant="Citas"><rect fill="#E2E2F0" height="31.6094" rx="2.5" ry="2.5" style="stroke:#181818;stroke-width:0.5;" width="45.8965" x="1026.5962" y="728.5469"/><text fill="#000000" font-family="sans-serif" font-size="14" lengthAdjust="spacing" textLength="31.8965" x="1033.5962" y="750.0801">Citas</text></g><g class="participant participant-head" data-participant="Repo"><rect fill="#E2E2F0" height="31.6094" rx="2.5" ry="2.5" style="stroke:#181818;stroke-width:0.5;" width="47.4688" x="1082.4927" y="88.6094"/><text fill="#000000" font-family="sans-serif" font-size="14" lengthAdjust="spacing" textLength="33.4688" x="1089.4927" y="110.1426">Repo</text></g><g class="participant participant-tail" data-participant="Repo"><rect fill="#E2E2F0" height="31.6094" rx="2.5" ry="2.5" style="stroke:#181818;stroke-width:0.5;" width="47.4688" x="1082.4927" y="728.5469"/><text fill="#000000" font-family="sans-serif" font-size="14" lengthAdjust="spacing" textLength="33.4688" x="1089.4927" y="750.0801">Repo</text></g><rect fill="#EEEEEE" height="3" style="stroke:#EEEEEE;stroke-width:1;" width="1134.9614" x="0" y="152.3945"/><line style="stroke:#000000;stroke-width:1;" x1="0" x2="1134.9614" y1="152.3945" y2="152.3945"/><line style="stroke:#000000;stroke-width:1;" x1="0" x2="1134.9614" y1="155.3945" y2="155.3945"/><rect fill="#EEEEEE" height="24.3516" style="stroke:#000000;stroke-width:2;" width="186.6436" x="474.1589" y="141.2188"/><text fill="#000000" font-family="sans-serif" font-size="13" font-weight="bold" lengthAdjust="spacing" textLength="169.0317" x="480.1589" y="158.7139">Creaci&#243;n de cita por Due&#241;o</text><g class="message" data-participant-1="Due.o" data-participant-2="FE"><polygon fill="#181818" points="403.5161,193.9219,413.5161,197.9219,403.5161,201.9219,407.5161,197.9219" style="stroke:#181818;stroke-width:1;"/><line style="stroke:#181818;stroke-width:1;" x1="28.6274" x2="409.5161" y1="197.9219" y2="197.9219"/><text fill="#000000" font-family="sans-serif" font-size="13" lengthAdjust="spacing" textLength="250.7451" x="35.6274" y="193.0654">selecciona mascota, veterinario, fecha/hora</text></g><g class="message" data-participant-1="FE" data-participant-2="BE"><polygon fill="#181818" points="838.6602,224.2734,848.6602,228.2734,838.6602,232.2734,842.6602,228.2734" style="stroke:#181818;stroke-width:1;"/><line style="stroke:#181818;stroke-width:1;" x1="415.5161" x2="844.6602" y1="228.2734" y2="228.2734"/><text fill="#000000" font-family="sans-serif" font-size="13" lengthAdjust="spacing" textLength="411.144" x="422.5161" y="223.417">POST /api/citas {mascotaId, veterinarioId, fechaHora, duracion, motivo}</text></g><g class="message" data-participant-1="BE" data-participant-2="Citas"><polygon fill="#181818" points="1037.5444,254.625,1047.5444,258.625,1037.5444,262.625,1041.5444,258.625" style="stroke:#181818;stroke-width:1;"/><line style="stroke:#181818;stroke-width:1;" x1="850.6602" x2="1043.5444" y1="258.625" y2="258.625"/><text fill="#000000" font-family="sans-serif" font-size="13" lengthAdjust="spacing" textLength="151.7471" x="857.6602" y="253.7686">validar conflicto de horario</text></g><g class="message" data-participant-1="Citas" data-participant-2="BE"><polygon fill="#181818" points="861.6602,284.9766,851.6602,288.9766,861.6602,292.9766,857.6602,288.9766" style="stroke:#181818;stroke-width:1;"/><line style="stroke:#181818;stroke-width:1;stroke-dasharray:2,2;" x1="855.6602" x2="1048.5444" y1="288.9766" y2="288.9766"/><text fill="#000000" font-family="sans-serif" font-size="13" lengthAdjust="spacing" textLength="102.6099" x="867.6602" y="284.1201">OK / 409 conflicto</text></g><g class="message" data-participant-1="BE" data-participant-2="FE"><polygon fill="#181818" points="426.5161,315.3281,416.5161,319.3281,426.5161,323.3281,422.5161,319.3281" style="stroke:#181818;stroke-width:1;"/><line style="stroke:#181818;stroke-width:1;stroke-dasharray:2,2;" x1="420.5161" x2="849.6602" y1="319.3281" y2="319.3281"/><text fill="#000000" font-family="sans-serif" font-size="13" lengthAdjust="spacing" textLength="198.4277" x="432.5161" y="314.4717">201 {cita: estado=agendada} / 409</text></g><rect fill="#EEEEEE" height="3" style="stroke:#EEEEEE;stroke-width:1;" width="1134.9614" x="0" y="348.5039"/><line style="stroke:#000000;stroke-width:1;" x1="0" x2="1134.9614" y1="348.5039" y2="348.5039"/><line style="stroke:#000000;stroke-width:1;" x1="0" x2="1134.9614" y1="351.5039" y2="351.5039"/><rect fill="#EEEEEE" height="24.3516" style="stroke:#000000;stroke-width:2;" width="258.1689" x="438.3962" y="337.3281"/><text fill="#000000" font-family="sans-serif" font-size="13" font-weight="bold" lengthAdjust="spacing" textLength="240.5571" x="444.3962" y="354.8232">Creaci&#243;n de cita por Admin/Veterinario</text><g class="message" data-participant-1="Admin" data-participant-2="FE"><polygon fill="#181818" points="403.5161,390.0313,413.5161,394.0313,403.5161,398.0313,407.5161,394.0313" style="stroke:#181818;stroke-width:1;"/><line style="stroke:#181818;stroke-width:1;" x1="85.0962" x2="409.5161" y1="394.0313" y2="394.0313"/><text fill="#000000" font-family="sans-serif" font-size="13" lengthAdjust="spacing" textLength="119.9644" x="92.0962" y="389.1748">crea cita sin due&#241;oId</text></g><g class="message" data-participant-1="FE" data-participant-2="BE"><polygon fill="#181818" points="838.6602,420.3828,848.6602,424.3828,838.6602,428.3828,842.6602,424.3828" style="stroke:#181818;stroke-width:1;"/><line style="stroke:#181818;stroke-width:1;" x1="415.5161" x2="844.6602" y1="424.3828" y2="424.3828"/><text fill="#000000" font-family="sans-serif" font-size="13" lengthAdjust="spacing" textLength="113.439" x="422.5161" y="419.5264">POST /api/citas {...}</text></g><g class="message" data-participant-1="BE" data-participant-2="Repo"><polygon fill="#181818" points="1094.2271,450.7344,1104.2271,454.7344,1094.2271,458.7344,1098.2271,454.7344" style="stroke:#181818;stroke-width:1;"/><line style="stroke:#181818;stroke-width:1;" x1="850.6602" x2="1100.2271" y1="454.7344" y2="454.7344"/><text fill="#000000" font-family="sans-serif" font-size="13" lengthAdjust="spacing" textLength="182.8188" x="857.6602" y="449.8779">obtener mascota por mascotaId</text></g><g class="message" data-participant-1="Repo" data-participant-2="BE"><polygon fill="#181818" points="861.6602,481.0859,851.6602,485.0859,861.6602,489.0859,857.6602,485.0859" style="stroke:#181818;stroke-width:1;"/><line style="stroke:#181818;stroke-width:1;stroke-dasharray:2,2;" x1="855.6602" x2="1105.2271" y1="485.0859" y2="485.0859"/><text fill="#000000" font-family="sans-serif" font-size="13" lengthAdjust="spacing" textLength="104.7808" x="867.6602" y="480.2295">mascota(due&#241;oId)</text></g><g class="message" data-participant-1="BE" data-participant-2="Citas"><polygon fill="#181818" points="1037.5444,511.4375,1047.5444,515.4375,1037.5444,519.4375,1041.5444,515.4375" style="stroke:#181818;stroke-width:1;"/><line style="stroke:#181818;stroke-width:1;" x1="850.6602" x2="1043.5444" y1="515.4375" y2="515.4375"/><text fill="#000000" font-family="sans-serif" font-size="13" lengthAdjust="spacing" textLength="174.8843" x="857.6602" y="510.5811">crear cita con due&#241;oId inferido</text></g><g class="message" data-participant-1="BE" data-participant-2="FE"><polygon fill="#181818" points="426.5161,541.7891,416.5161,545.7891,426.5161,549.7891,422.5161,545.7891" style="stroke:#181818;stroke-width:1;"/><line style="stroke:#181818;stroke-width:1;stroke-dasharray:2,2;" x1="420.5161" x2="849.6602" y1="545.7891" y2="545.7891"/><text fill="#000000" font-family="sans-serif" font-size="13" lengthAdjust="spacing" textLength="54.2153" x="432.5161" y="540.9326">201 {cita}</text></g><rect fill="#EEEEEE" height="3" style="stroke:#EEEEEE;stroke-width:1;" width="1134.9614" x="0" y="574.9648"/><line style="stroke:#000000;stroke-width:1;" x1="0" x2="1134.9614" y1="574.9648" y2="574.9648"/><line style="stroke:#000000;stroke-width:1;" x1="0" x2="1134.9614" y1="577.9648" y2="577.9648"/><rect fill="#EEEEEE" height="24.3516" style="stroke:#000000;stroke-width:2;" width="146.1899" x="494.3857" y="563.7891"/><text fill="#000000" font-family="sans-serif" font-size="13" font-weight="bold" lengthAdjust="spacing" textLength="128.5781" x="500.3857" y="581.2842">Confirmaci&#243;n de cita</text><g class="message" data-participant-1="Veterinario" data-participant-2="FE"><polygon fill="#181818" points="403.5161,616.4922,413.5161,620.4922,403.5161,624.4922,407.5161,620.4922" style="stroke:#181818;stroke-width:1;"/><line style="stroke:#181818;stroke-width:1;" x1="154.7891" x2="409.5161" y1="620.4922" y2="620.4922"/><text fill="#000000" font-family="sans-serif" font-size="13" lengthAdjust="spacing" textLength="73.6899" x="161.7891" y="615.6357">confirma cita</text></g><g class="message" data-participant-1="FE" data-participant-2="BE"><polygon fill="#181818" points="838.6602,646.8438,848.6602,650.8438,838.6602,654.8438,842.6602,650.8438" style="stroke:#181818;stroke-width:1;"/><line style="stroke:#181818;stroke-width:1;" x1="415.5161" x2="844.6602" y1="650.8438" y2="650.8438"/><text fill="#000000" font-family="sans-serif" font-size="13" lengthAdjust="spacing" textLength="286.8887" x="422.5161" y="645.9873">PATCH /api/citas/{id}/estado {estado: confirmada}</text></g><g class="message" data-participant-1="BE" data-participant-2="Citas"><polygon fill="#181818" points="1037.5444,677.1953,1047.5444,681.1953,1037.5444,685.1953,1041.5444,681.1953" style="stroke:#181818;stroke-width:1;"/><line style="stroke:#181818;stroke-width:1;" x1="850.6602" x2="1043.5444" y1="681.1953" y2="681.1953"/><text fill="#000000" font-family="sans-serif" font-size="13" lengthAdjust="spacing" textLength="98.2808" x="857.6602" y="676.3389">actualizar estado</text></g><g class="message" data-participant-1="BE" data-participant-2="FE"><polygon fill="#181818" points="426.5161,707.5469,416.5161,711.5469,426.5161,715.5469,422.5161,711.5469" style="stroke:#181818;stroke-width:1;"/><line style="stroke:#181818;stroke-width:1;stroke-dasharray:2,2;" x1="420.5161" x2="849.6602" y1="711.5469" y2="711.5469"/><text fill="#000000" font-family="sans-serif" font-size="13" lengthAdjust="spacing" textLength="144.5488" x="432.5161" y="706.6904">200 {estado: confirmada}</text></g><!--SRC=[VPFFJXin4CRlVeev5YbaqweNLbeaaXQ1gWf44FUfFO5H4tlbTI91b8T2F08lrl6VJR8LuhIsPyRpVR_n1WvBWZdfDLdDMCFC4tfu1ktiWlrArfe3AeKwE0y_rlJ-wihcmgpOblK31V9iqRDJBVh0cbkq0Iv_0dPmwPqDPCqWD4sXAUg__qTcqh6BmRYOaz-mfa727RKkndzZfrt0kErOP3mhrJJ9WkRtDmk6adfezzAXQLHPdPwBkXewMfBMx2p2AbytWit1pGWMf9-mUd8UbRYHggbKtTxCxw72bYkTn6vBxRKPLCTjgh-IyX6OjSVOQWGh5tZZTcgQRao6QzZWaaqaBkoNB5oZWTWuKirGJal_crzGmVV9sI4tNLKyVPjyXMqKLWDr0Orhy54Wey5TBlk4KvfgTJJFY2mTziIqrENyJWvDedbjFeCp7ezxgt5MDRW_yXp8zyHJupr1bSRREot7N_e-9qDcEhtNf4PGxDK0suKOC1zZsMN_vOaF6OZRO_EzvvAR_uOZgnVtiwiZhzMMpQxAq66RluTguJzKBp_FMeR-8XPoxb3kvCCh_W40]--></g></svg>