<svg xmlns="http://www.w3.org/2000/svg" xmlns:xlink="http://www.w3.org/1999/xlink" contentStyleType="text/css" data-diagram-type="STATE" height="433px" preserveAspectRatio="none" style="width:866px;height:433px;background:#FFFFFF;" version="1.1" viewBox="0 0 866 433" width="866px" zoomAndPan="magnify"><defs/><g><g id="ACTIVA"><rect fill="#F1F1F1" height="50" rx="12.5" ry="12.5" style="stroke:#181818;stroke-width:0.5;" width="70.5654" x="535" y="87"/><line style="stroke:#181818;stroke-width:0.5;" x1="535" x2="605.5654" y1="114.6094" y2="114.6094"/><text fill="#000000" font-family="sans-serif" font-size="14" lengthAdjust="spacing" textLength="50.5654" x="545" y="106.5332">ACTIVA</text></g><path d="M19.5,352 L329.5742,352 A12.5,12.5 0 0 1 342.0742,364.5 L342.0742,379.6094 L7,379.6094 L7,364.5 A12.5,12.5 0 0 1 19.5,352" fill="#F1F1F1"/><rect fill="none" height="75.9609" rx="12.5" ry="12.5" style="stroke:#181818;stroke-width:0.5;" width="335.0742" x="7" y="352"/><line style="stroke:#181818;stroke-width:0.5;" x1="7" x2="342.0742" y1="379.6094" y2="379.6094"/><text fill="#000000" font-family="sans-serif" font-size="14" lengthAdjust="spacing" textLength="76.248" x="136.4131" y="371.5332">FALLECIDA</text><g class="entity" data-entity="N1" data-source-line="13" data-uid="ent0004" id="entity_N1"><path d="M18,390.6094 L18,416.9609 L333.0742,416.9609 L333.0742,400.6094 L323.0742,390.6094 L18,390.6094" fill="#FEFFDD" style="stroke:#181818;stroke-width:0.5;"/><path d="M323.0742,390.6094 L323.0742,400.6094 L333.0742,400.6094 L323.0742,390.6094" fill="#FEFFDD" style="stroke:#181818;stroke-width:1;"/><text fill="#000000" font-family="sans-serif" font-size="13" lengthAdjust="spacing" textLength="294.0742" x="24" y="409.1045">No nuevas citas; conserva historiales y certificados</text></g><path d="M287,215 L685.9985,215 A12.5,12.5 0 0 1 698.4985,227.5 L698.4985,242.6094 L274.5,242.6094 L274.5,227.5 A12.5,12.5 0 0 1 287,215" fill="#F1F1F1"/><rect fill="none" height="75.9609" rx="12.5" ry="12.5" style="stroke:#181818;stroke-width:0.5;" width="423.9985" x="274.5" y="215"/><line style="stroke:#181818;stroke-width:0.5;" x1="274.5" x2="698.4985" y1="242.6094" y2="242.6094"/><text fill="#000000" font-family="sans-serif" font-size="14" lengthAdjust="spacing" textLength="75.4619" x="448.7683" y="234.5332">ELIMINADA</text><g class="entity" data-entity="N2" data-source-line="17" data-uid="ent0006" id="entity_N2"><path d="M285.5,253.6094 L285.5,279.9609 L689.4985,279.9609 L689.4985,263.6094 L679.4985,253.6094 L285.5,253.6094" fill="#FEFFDD" style="stroke:#181818;stroke-width:0.5;"/><path d="M679.4985,253.6094 L679.4985,263.6094 L689.4985,263.6094 L679.4985,253.6094" fill="#FEFFDD" style="stroke:#181818;stroke-width:1;"/><text fill="#000000" font-family="sans-serif" font-size="13" lengthAdjust="spacing" textLength="382.9985" x="291.5" y="272.1045">No aparece en listados; datos conservados; restaurable por admin</text></g><ellipse cx="570.5" cy="16" fill="#222222" rx="10" ry="10" style="stroke:#222222;stroke-width:1;"/><g id="DESCONOCIDO"><rect fill="#F1F1F1" height="50" rx="12.5" ry="12.5" style="stroke:#181818;stroke-width:0.5;" width="125.7861" x="733.5" y="228"/><line style="stroke:#181818;stroke-width:0.5;" x1="733.5" x2="859.2861" y1="255.6094" y2="255.6094"/><text fill="#000000" font-family="sans-serif" font-size="14" lengthAdjust="spacing" textLength="105.7861" x="743.5" y="247.5332">DESCONOCIDO</text></g><!--link *start* to ACTIVA--><g class="link" data-entity-1=".start." data-entity-2="ACTIVA" data-source-line="1" data-uid="lnk3" id="link_.start._ACTIVA"><path d="M570.5,26.01 C570.5,39.89 570.5,60.97 570.5,80.84" fill="none" id="*start*-to-ACTIVA" style="stroke:#181818;stroke-width:1;"/><polygon fill="#181818" points="570.5,86.84,574.5,77.84,570.5,81.84,566.5,77.84,570.5,86.84" style="stroke:#181818;stroke-width:1;"/></g><!--link ACTIVA to FALLECIDA--><g class="link" data-entity-1="ACTIVA" data-entity-2="FALLECIDA" data-source-line="6" data-uid="lnk4" id="link_ACTIVA_FALLECIDA"><path d="M534.98,116.6 C445.83,126.45 216.5,157.05 171.5,215 C141.39,253.78 149.0813,307.6653 159.9113,346.0653" fill="none" id="ACTIVA-to-FALLECIDA" style="stroke:#181818;stroke-width:1;"/><polygon fill="#181818" points="161.54,351.84,162.9468,342.0921,160.1828,347.0277,155.2472,344.2637,161.54,351.84" style="stroke:#181818;stroke-width:1;"/><text fill="#000000" font-family="sans-serif" font-size="13" lengthAdjust="spacing" textLength="83.8335" x="172.5" y="258.4951">evento: fallece</text></g><!--link ACTIVA to DESCONOCIDO--><g class="link" data-entity-1="ACTIVA" data-entity-2="DESCONOCIDO" data-source-line="7" data-uid="lnk6" id="link_ACTIVA_DESCONOCIDO"><path d="M596.25,137.14 C612.93,152.04 635.55,170.92 657.5,185 C665.65,190.22 703.4518,208.3437 739.5718,225.3537" fill="none" id="ACTIVA-to-DESCONOCIDO" style="stroke:#181818;stroke-width:1;"/><polygon fill="#181818" points="745,227.91,738.5619,220.4567,740.4765,225.7797,735.1535,227.6943,745,227.91" style="stroke:#181818;stroke-width:1;"/><text fill="#000000" font-family="sans-serif" font-size="13" lengthAdjust="spacing" textLength="104.7808" x="658.5" y="181.4951">datos incompletos</text></g><!--link DESCONOCIDO to ACTIVA--><g class="link" data-entity-1="DESCONOCIDO" data-entity-2="ACTIVA" data-source-line="8" data-uid="lnk7" id="link_DESCONOCIDO_ACTIVA"><path d="M794.35,227.82 C791.38,208.75 784.31,182.81 767.5,167 C723.2,125.33 655.833,115.55 612.233,113.44" fill="none" id="DESCONOCIDO-to-ACTIVA" style="stroke:#181818;stroke-width:1;"/><polygon fill="#181818" points="606.24,113.15,615.0361,117.5804,611.2342,113.3917,615.4228,109.5897,606.24,113.15" style="stroke:#181818;stroke-width:1;"/></g><!--link DESCONOCIDO to FALLECIDA--><g class="link" data-entity-1="DESCONOCIDO" data-entity-2="FALLECIDA" data-source-line="9" data-uid="lnk8" id="link_DESCONOCIDO_FALLECIDA"><path d="M749.49,278.15 C738.84,282.93 727.44,287.54 716.5,291 C593.86,329.75 456.4229,354.0039 347.9429,369.0839" fill="none" id="DESCONOCIDO-to-FALLECIDA" style="stroke:#181818;stroke-width:1;"/><polygon fill="#181818" points="342,369.91,351.465,372.6327,346.9524,369.2216,350.3635,364.7089,342,369.91" style="stroke:#181818;stroke-width:1;"/></g><!--link ACTIVA to ELIMINADA--><g class="link" data-entity-1="ACTIVA" data-entity-2="ELIMINADA" data-source-line="10" data-uid="lnk9" id="link_ACTIVA_ELIMINADA"><path d="M534.74,130.68 C520.5,139.58 505.41,151.76 496.5,167 C488.18,181.24 485.4614,193.1161 484.7514,208.7961" fill="none" id="ACTIVA-to-ELIMINADA" style="stroke:#181818;stroke-width:1;"/><polygon fill="#181818" points="484.48,214.79,488.883,205.9801,484.7062,209.7951,480.8912,205.6183,484.48,214.79" style="stroke:#181818;stroke-width:1;"/><text fill="#000000" font-family="sans-serif" font-size="13" lengthAdjust="spacing" textLength="113.4263" x="497.5" y="181.4951">admin elimina (soft)</text></g><!--SRC=[NL31IiD04BtlLpnwKg47FROWX3H282O7nOju63SJNDZkXDrjG4h_tKsJskXfPz-yUU_DlDzzOBr-H9Q_bc-PKY5IvFc7epefDTSZwIchgY8lTnasu85Tb0qwifOrBscxuYLlwYOHcqHiAKg0SLhslULKgsL_uVqV_dLRQXTL-LpMsJa2jNlZmDQaXt0Jf8ktbmskKOyAS9AWLIrm1nueG9j8OGijBh0V25ycHF66B0TyGxEFfZEQMWah97fzFnvY4hu6-2DCFVbq1h23JMBZw7PU_U9oXZodvi7JfsNqugST9fC7TVe1]--></g></svg>