<svg xmlns="http://www.w3.org/2000/svg" xmlns:xlink="http://www.w3.org/1999/xlink" contentStyleType="text/css" data-diagram-type="DESCRIPTION" height="614px" preserveAspectRatio="none" style="width:1236px;height:614px;background:#FFFFFF;" version="1.1" viewBox="0 0 1236 614" width="1236px" zoomAndPan="magnify"><title>Componentes SGV</title><defs/><g><g class="title" data-source-line="2"><text fill="#000000" font-family="sans-serif" font-size="14" font-weight="bold" lengthAdjust="spacing" textLength="126.793" x="547.978" y="24.5332">Componentes SGV</text></g><!--cluster Frontend--><g class="cluster" data-entity="Frontend" data-source-line="4" data-uid="ent0002" id="cluster_Frontend"><path d="M8.5,44.6094 L70.1553,44.6094 A3.75,3.75 0 0 1 72.6553,47.1094 L79.6553,68.2188 L597.5,68.2188 A2.5,2.5 0 0 1 600,70.7188 L600,248.1094 A2.5,2.5 0 0 1 597.5,250.6094 L8.5,250.6094 A2.5,2.5 0 0 1 6,248.1094 L6,47.1094 A2.5,2.5 0 0 1 8.5,44.6094" fill="none" style="stroke:#000000;stroke-width:1.5;"/><line style="stroke:#000000;stroke-width:1.5;" x1="6" x2="79.6553" y1="68.2188" y2="68.2188"/><text fill="#000000" font-family="sans-serif" font-size="14" font-weight="bold" lengthAdjust="spacing" textLength="60.6553" x="10" y="61.1426">Frontend</text></g><!--cluster Backend--><g class="cluster" data-entity="Backend" data-source-line="13" data-uid="ent0009" id="cluster_Backend"><path d="M53.5,300.6094 L112.8584,300.6094 A3.75,3.75 0 0 1 115.3584,303.1094 L122.3584,324.2188 L975.5,324.2188 A2.5,2.5 0 0 1 978,326.7188 L978,504.1094 A2.5,2.5 0 0 1 975.5,506.6094 L53.5,506.6094 A2.5,2.5 0 0 1 51,504.1094 L51,303.1094 A2.5,2.5 0 0 1 53.5,300.6094" fill="none" style="stroke:#000000;stroke-width:1.5;"/><line style="stroke:#000000;stroke-width:1.5;" x1="51" x2="122.3584" y1="324.2188" y2="324.2188"/><text fill="#000000" font-family="sans-serif" font-size="14" font-weight="bold" lengthAdjust="spacing" textLength="58.3584" x="55" y="317.1426">Backend</text></g><!--entity Dash--><g class="entity" data-entity="Dash" data-source-line="5" data-uid="ent0003" id="entity_Dash"><rect fill="#F1F1F1" height="37.6094" rx="2.5" ry="2.5" style="stroke:#181818;stroke-width:0.5;" width="88.4893" x="496" y="80.6094"/><text fill="#000000" font-family="sans-serif" font-size="14" lengthAdjust="spacing" textLength="68.4893" x="506" y="105.1426">Dashboard</text></g><!--entity AdminUI--><g class="entity" data-entity="AdminUI" data-source-line="6" data-uid="ent0004" id="entity_AdminUI"><rect fill="#F1F1F1" height="37.6094" rx="2.5" ry="2.5" style="stroke:#181818;stroke-width:0.5;" width="77.5723" x="145" y="80.6094"/><text fill="#000000" font-family="sans-serif" font-size="14" lengthAdjust="spacing" textLength="57.5723" x="155" y="105.1426">Admin UI</text></g><!--entity MascotasUI--><g class="entity" data-entity="MascotasUI" data-source-line="7" data-uid="ent0005" id="entity_MascotasUI"><rect fill="#F1F1F1" height="37.6094" rx="2.5" ry="2.5" style="stroke:#181818;stroke-width:0.5;" width="97.7998" x="258" y="80.6094"/><text fill="#000000" font-family="sans-serif" font-size="14" lengthAdjust="spacing" textLength="77.7998" x="268" y="105.1426">Mascotas UI</text></g><!--entity CitasUI--><g class="entity" data-entity="CitasUI" data-source-line="8" data-uid="ent0006" id="entity_CitasUI"><rect fill="#F1F1F1" height="37.6094" rx="2.5" ry="2.5" style="stroke:#181818;stroke-width:0.5;" width="69.7861" x="391" y="80.6094"/><text fill="#000000" font-family="sans-serif" font-size="14" lengthAdjust="spacing" textLength="49.7861" x="401" y="105.1426">Citas UI</text></g><!--entity RoleGuard--><g class="entity" data-entity="RoleGuard" data-source-line="9" data-uid="ent0007" id="entity_RoleGuard"><rect fill="#F1F1F1" height="37.6094" rx="2.5" ry="2.5" style="stroke:#181818;stroke-width:0.5;" width="87.7031" x="22" y="80.6094"/><text fill="#000000" font-family="sans-serif" font-size="14" lengthAdjust="spacing" textLength="67.7031" x="32" y="105.1426">RoleGuard</text></g><!--entity lib/api.ts--><g class="entity" data-entity="lib.api.ts" data-source-line="10" data-uid="ent0008" id="entity_lib.api.ts"><rect fill="#F1F1F1" height="37.6094" rx="2.5" ry="2.5" style="stroke:#181818;stroke-width:0.5;" width="71.3584" x="122.5" y="196.6094"/><text fill="#000000" font-family="sans-serif" font-size="14" lengthAdjust="spacing" textLength="51.3584" x="132.5" y="221.1426">lib/api.ts</text></g><!--entity AuthController--><g class="entity" data-entity="AuthController" data-source-line="14" data-uid="ent0010" id="entity_AuthController"><rect fill="#F1F1F1" height="37.6094" rx="2.5" ry="2.5" style="stroke:#181818;stroke-width:0.5;" width="109.4893" x="377.5" y="336.6094"/><text fill="#000000" font-family="sans-serif" font-size="14" lengthAdjust="spacing" textLength="89.4893" x="387.5" y="361.1426">AuthController</text></g><!--entity AdminController--><g class="entity" data-entity="AdminController" data-source-line="15" data-uid="ent0011" id="entity_AdminController"><rect fill="#F1F1F1" height="37.6094" rx="2.5" ry="2.5" style="stroke:#181818;stroke-width:0.5;" width="120.3721" x="522" y="336.6094"/><text fill="#000000" font-family="sans-serif" font-size="14" lengthAdjust="spacing" textLength="100.3721" x="532" y="361.1426">AdminController</text></g><!--entity UsuarioController--><g class="entity" data-entity="UsuarioController" data-source-line="16" data-uid="ent0012" id="entity_UsuarioController"><rect fill="#F1F1F1" height="37.6094" rx="2.5" ry="2.5" style="stroke:#181818;stroke-width:0.5;" width="128.9307" x="213.5" y="336.6094"/><text fill="#000000" font-family="sans-serif" font-size="14" lengthAdjust="spacing" textLength="108.9307" x="223.5" y="361.1426">UsuarioController</text></g><!--entity MascotaController--><g class="entity" data-entity="MascotaController" data-source-line="17" data-uid="ent0013" id="entity_MascotaController"><rect fill="#F1F1F1" height="37.6094" rx="2.5" ry="2.5" style="stroke:#181818;stroke-width:0.5;" width="133.5996" x="687" y="452.6094"/><text fill="#000000" font-family="sans-serif" font-size="14" lengthAdjust="spacing" textLength="113.5996" x="697" y="477.1426">MascotaController</text></g><!--entity CitaController--><g class="entity" data-entity="CitaController" data-source-line="18" data-uid="ent0014" id="entity_CitaController"><rect fill="#F1F1F1" height="37.6094" rx="2.5" ry="2.5" style="stroke:#181818;stroke-width:0.5;" width="105.5859" x="856" y="452.6094"/><text fill="#000000" font-family="sans-serif" font-size="14" lengthAdjust="spacing" textLength="85.5859" x="866" y="477.1426">CitaController</text></g><!--entity HistorialMedicoController--><g class="entity" data-entity="HistorialMedicoController" data-source-line="19" data-uid="ent0015" id="entity_HistorialMedicoController"><rect fill="#F1F1F1" height="37.6094" rx="2.5" ry="2.5" style="stroke:#181818;stroke-width:0.5;" width="176.3857" x="677" y="336.6094"/><text fill="#000000" font-family="sans-serif" font-size="14" lengthAdjust="spacing" textLength="156.3857" x="687" y="361.1426">HistorialMedicoController</text></g><!--entity VacunaController--><g class="entity" data-entity="VacunaController" data-source-line="20" data-uid="ent0016" id="entity_VacunaController"><rect fill="#F1F1F1" height="37.6094" rx="2.5" ry="2.5" style="stroke:#181818;stroke-width:0.5;" width="128.1719" x="264" y="452.6094"/><text fill="#000000" font-family="sans-serif" font-size="14" lengthAdjust="spacing" textLength="108.1719" x="274" y="477.1426">VacunaController</text></g><!--entity CertificadoController--><g class="entity" data-entity="CertificadoController" data-source-line="21" data-uid="ent0017" id="entity_CertificadoController"><rect fill="#F1F1F1" height="37.6094" rx="2.5" ry="2.5" style="stroke:#181818;stroke-width:0.5;" width="147.6064" x="427" y="452.6094"/><text fill="#000000" font-family="sans-serif" font-size="14" lengthAdjust="spacing" textLength="127.6064" x="437" y="477.1426">CertificadoController</text></g><!--entity SecurityConfig--><g class="entity" data-entity="SecurityConfig" data-source-line="22" data-uid="ent0018" id="entity_SecurityConfig"><rect fill="#F1F1F1" height="37.6094" rx="2.5" ry="2.5" style="stroke:#181818;stroke-width:0.5;" width="111.041" x="67.5" y="336.6094"/><text fill="#000000" font-family="sans-serif" font-size="14" lengthAdjust="spacing" textLength="91.041" x="77.5" y="361.1426">SecurityConfig</text></g><!--entity JwtAuthenticationFilter--><g class="entity" data-entity="JwtAuthenticationFilter" data-source-line="23" data-uid="ent0019" id="entity_JwtAuthenticationFilter"><rect fill="#F1F1F1" height="37.6094" rx="2.5" ry="2.5" style="stroke:#181818;stroke-width:0.5;" width="160.8408" x="67.5" y="452.6094"/><text fill="#000000" font-family="sans-serif" font-size="14" lengthAdjust="spacing" textLength="140.8408" x="77.5" y="477.1426">JwtAuthenticationFilter</text></g><!--entity Services--><g class="entity" data-entity="Services" data-source-line="24" data-uid="ent0020" id="entity_Services"><rect fill="#F1F1F1" height="37.6094" rx="2.5" ry="2.5" style="stroke:#181818;stroke-width:0.5;" width="73.6826" x="888" y="336.6094"/><text fill="#000000" font-family="sans-serif" font-size="14" lengthAdjust="spacing" textLength="53.6826" x="898" y="361.1426">Services</text></g><!--entity Controllers--><g class="entity" data-entity="Controllers" data-source-line="32" data-uid="ent0026" id="entity_Controllers"><rect fill="#F1F1F1" height="37.6094" rx="2.5" ry="2.5" style="stroke:#181818;stroke-width:0.5;" width="87.6895" x="104" y="570.6094"/><text fill="#000000" font-family="sans-serif" font-size="14" lengthAdjust="spacing" textLength="67.6895" x="114" y="595.1426">Controllers</text></g><g class="entity" data-entity="GMN31" data-source-line="38" data-uid="ent0032" id="entity_GMN31"><path d="M616,202.6094 L616,228.9609 L799.6206,228.9609 L799.6206,212.6094 L789.6206,202.6094 L616,202.6094" fill="#FEFFDD" style="stroke:#181818;stroke-width:0.5;"/><path d="M789.6206,202.6094 L789.6206,212.6094 L799.6206,212.6094 L789.6206,202.6094" fill="#FEFFDD" style="stroke:#181818;stroke-width:1;"/><text fill="#000000" font-family="sans-serif" font-size="13" lengthAdjust="spacing" textLength="162.6206" x="622" y="221.1045">Redirige a /login en 401/403</text></g><!--link lib/api.ts to AuthController--><g class="link" data-entity-1="lib.api.ts" data-entity-2="AuthController" data-source-line="27" data-uid="lnk21" id="link_lib.api.ts_AuthController"><path d="M193.63,225.8894 C235.37,237.6694 305.7,260.3994 360,292.6094 C380.43,304.7294 396.3756,318.6289 410.1656,332.1489" fill="none" id="lib/api.ts-to-AuthController" style="stroke:#181818;stroke-width:1;"/><polygon fill="#181818" points="414.45,336.3494,410.8238,327.1924,410.8797,332.849,405.2231,332.9049,414.45,336.3494" style="stroke:#181818;stroke-width:1;"/><text fill="#000000" font-family="sans-serif" font-size="13" lengthAdjust="spacing" textLength="119.958" x="345" y="281.1045">POST /api/auth/login</text></g><!--link AdminUI to AdminController--><g class="link" data-entity-1="AdminUI" data-entity-2="AdminController" data-source-line="28" data-uid="lnk22" id="link_AdminUI_AdminController"><path d="M223.22,114.1794 C228.81,115.8294 234.52,117.3694 240,118.6094 C366.41,147.2194 732.7,99.0294 818,196.6094 C836.14,217.3594 835.31,237.1694 818,258.6094 C772.87,314.4894 724.93,261.8994 660,292.6094 C637.01,303.4794 619.0642,318.1813 604.2342,332.2413" fill="none" id="AdminUI-to-AdminController" style="stroke:#181818;stroke-width:1;"/><polygon fill="#181818" points="599.88,336.3694,609.1633,333.08,603.5085,332.9293,603.6592,327.2744,599.88,336.3694" style="stroke:#181818;stroke-width:1;"/><text fill="#000000" font-family="sans-serif" font-size="13" lengthAdjust="spacing" textLength="90.3018" x="832" y="221.1045">usuarios CRUD</text></g><!--link MascotasUI to MascotaController--><g class="link" data-entity-1="MascotasUI" data-entity-2="MascotaController" data-source-line="29" data-uid="lnk23" id="link_MascotasUI_MascotaController"><path d="M356.16,114.9394 C362.14,116.3394 368.18,117.6194 374,118.6094 C497.2,139.6394 834.95,116.6394 931,196.6094 C994.06,249.1094 1025.28,306.1794 980,374.6094 C961.06,403.2294 882.2875,432.0318 822.1775,450.7918" fill="none" id="MascotasUI-to-MascotaController" style="stroke:#181818;stroke-width:1;"/><polygon fill="#181818" points="816.45,452.5794,826.233,453.7164,821.223,451.0898,823.8496,446.0797,816.45,452.5794" style="stroke:#181818;stroke-width:1;"/><text fill="#000000" font-family="sans-serif" font-size="13" lengthAdjust="spacing" textLength="96.7954" x="998" y="281.1045">mascotas CRUD</text></g><!--link CitasUI to CitaController--><g class="link" data-entity-1="CitasUI" data-entity-2="CitaController" data-source-line="30" data-uid="lnk24" id="link_CitasUI_CitaController"><path d="M461.01,113.8594 C466.95,115.7094 473.1,117.3894 479,118.6094 C644.93,152.7794 693.77,111.1894 859,148.6094 C917.04,161.7494 930.39,170.7694 984,196.6094 C1039.27,223.2494 1072.54,213.3494 1103,266.6094 C1148.86,346.7894 1026.6948,417.2272 956.7648,449.9372" fill="none" id="CitasUI-to-CitaController" style="stroke:#181818;stroke-width:1;"/><polygon fill="#181818" points="951.33,452.4794,961.177,452.2894,955.859,450.3609,957.7875,445.0429,951.33,452.4794" style="stroke:#181818;stroke-width:1;"/><text fill="#000000" font-family="sans-serif" font-size="13" lengthAdjust="spacing" textLength="117.749" x="1111" y="281.1045">crear/confirmar citas</text></g><!--link RoleGuard to lib/api.ts--><g class="link" data-entity-1="RoleGuard" data-entity-2="lib.api.ts" data-source-line="31" data-uid="lnk25" id="link_RoleGuard_lib.api.ts"><path d="M80.58,118.6694 C97.7,139.8894 122.1908,170.2411 139.4208,191.5811" fill="none" id="RoleGuard-to-lib/api.ts" style="stroke:#181818;stroke-width:1;"/><polygon fill="#181818" points="143.19,196.2494,140.6484,186.7341,140.049,192.3591,134.424,191.7597,143.19,196.2494" style="stroke:#181818;stroke-width:1;"/><text fill="#000000" font-family="sans-serif" font-size="13" lengthAdjust="spacing" textLength="115.6416" x="119" y="163.1045">a&#241;ade Authorization</text></g><!--link JwtAuthenticationFilter to Controllers--><g class="link" data-entity-1="JwtAuthenticationFilter" data-entity-2="Controllers" data-source-line="32" data-uid="lnk27" id="link_JwtAuthenticationFilter_Controllers"><path d="M148,490.7294 C148,512.3994 148,542.4494 148,564.2294" fill="none" id="JwtAuthenticationFilter-to-Controllers" style="stroke:#181818;stroke-width:1;"/><polygon fill="#181818" points="148,570.2294,152,561.2294,148,565.2294,144,561.2294,148,570.2294" style="stroke:#181818;stroke-width:1;"/><text fill="#000000" font-family="sans-serif" font-size="13" lengthAdjust="spacing" textLength="85.2554" x="149" y="537.1045">Principal &amp; Rol</text></g><!--link SecurityConfig to JwtAuthenticationFilter--><g class="link" data-entity-1="SecurityConfig" data-entity-2="JwtAuthenticationFilter" data-source-line="33" data-uid="lnk28" id="link_SecurityConfig_JwtAuthenticationFilter"><path d="M126.96,374.6694 C131.61,395.8894 138.0047,425.0487 142.6847,446.3887" fill="none" id="SecurityConfig-to-JwtAuthenticationFilter" style="stroke:#181818;stroke-width:1;"/><polygon fill="#181818" points="143.97,452.2494,145.9492,442.6014,142.8989,447.3654,138.1349,444.3152,143.97,452.2494" style="stroke:#181818;stroke-width:1;"/><text fill="#000000" font-family="sans-serif" font-size="13" lengthAdjust="spacing" textLength="109.8145" x="138" y="419.1045">SecurityFilterChain</text></g><!--link Services to MascotaController--><g class="link" data-entity-1="Services" data-entity-2="MascotaController" data-source-line="34" data-uid="lnk29" id="link_Services_MascotaController"><path d="M897.9,374.6694 C865.98,395.9594 818.2321,427.7808 786.2421,449.1108" fill="none" id="Services-to-MascotaController" style="stroke:#181818;stroke-width:1;"/><polygon fill="#181818" points="781.25,452.4394,790.9571,450.7746,785.4101,449.6656,786.5191,444.1185,781.25,452.4394" style="stroke:#181818;stroke-width:1;"/></g><!--link Services to CitaController--><g class="link" data-entity-1="Services" data-entity-2="CitaController" data-source-line="35" data-uid="lnk30" id="link_Services_CitaController"><path d="M922.46,374.6694 C919.49,395.8894 915.4025,424.9674 912.4125,446.3074" fill="none" id="Services-to-CitaController" style="stroke:#181818;stroke-width:1;"/><polygon fill="#181818" points="911.58,452.2494,916.7901,443.8915,912.2738,447.2977,908.8675,442.7814,911.58,452.2494" style="stroke:#181818;stroke-width:1;"/></g><!--link RoleGuard to GMN31--><g class="link" data-entity-1="RoleGuard" data-entity-2="GMN31" data-source-line="38" data-uid="lnk33" id="link_RoleGuard_GMN31"><path d="M110.14,114.3294 C115.79,115.8794 121.51,117.3494 127,118.6094 C334.68,166.1794 389.81,161.7594 600,196.6094 C611.63,198.5394 623.96,200.5894 635.97,202.5894" fill="none" id="RoleGuard-GMN31" style="stroke:#181818;stroke-width:1;stroke-dasharray:7,7;"/></g><!--SRC=[TLBBJkD04BpFLxGuS0E3u9J3IcmY0YkXHGdX4kNG6K-I5kCPQzm6iOYFsc_O7ziUZ_Em8JTtTLLFTvMh5t8b1Yn0-wBqpZYUyhir48ncT6jh51DBFTosJGNJyRDI9UeNN1iukGrUK9UVm8S2c8-msYmzXdm1M46i8dgJ5-HWTj-0JJ6xZ_W3LjgpO6rhMwVka0vQJP7mYRTcNCStOcLfcM59vrmjrEV1OZ_bOx_NJSsReMmQlBKcB7PBzR1P9NF9zz1shHuQD-f1TrIn3uJsmUIa-sEUKTVkonGJc5QaCU_JfqRNWVXTu1Mj6-ZN6yT390SHC7btIvPtzF1AsYGN3bs1ixCVqBqV1l3uU_e4aPAXj3Bhr-JKlCscrNGD4b6Tx94q9hEHck_ZIe8lFecas4QS96sCYTzrKCWw60oPZWU70WFeo5O7WJUopd43m7z_CJVDXUBzdyONTTIgD67_QZFYCP3JLAA5Kv37LD_x93ewSW1RVaA66uncxXBvtfm-eUk6KiwpWQLdzWNu5UnCK1FvkGB9FuwGSWFZuFhYChk-k5BooqDK_WS0]--></g></svg>